<?xml version="1.0" encoding="UTF-8"?>
<svg version="1.1" xmlns="http://www.w3.org/2000/svg" width="500" height="225">
<path d="M0 0 C165 0 330 0 500 0 C500 74.25 500 148.5 500 225 C335 225 170 225 0 225 C0 150.75 0 76.5 0 0 Z " fill="#0193CF" transform="translate(0,0)"/>
<path d="M0 0 C3.42598497 1.57791781 4.84134679 2.83787502 6.75 6.125 C7.17796875 6.84945312 7.6059375 7.57390625 8.046875 8.3203125 C8.36140625 8.87460938 8.6759375 9.42890625 9 10 C8.01 10.33 7.02 10.66 6 11 C7.65 11.33 9.3 11.66 11 12 C10.23855828 16.89634495 9.45675604 21.78884459 8.65625 26.67895508 C8.38701085 28.3414745 8.12326971 30.00489432 7.86523438 31.66918945 C7.49244613 34.06722156 7.09972729 36.46127451 6.703125 38.85546875 C6.5372287 39.96513252 6.5372287 39.96513252 6.36798096 41.09721375 C5.23776778 47.70318531 2.18596882 51.20112583 -2.8125 55.375 C-6.26777759 58.31360057 -9.44018344 61.41926387 -12.5546875 64.71484375 C-14 66 -14 66 -16 66 C-16.24492188 66.57105469 -16.48984375 67.14210938 -16.7421875 67.73046875 C-21.8976703 77.03275294 -32.86205475 84.28619517 -41 91 C-38.59798223 77.85211326 -35.31414594 64.94301826 -32 52 C-28.81913482 53.50946511 -26.70130094 55.07941825 -24.25 57.625 C-23.63640625 58.25664063 -23.0228125 58.88828125 -22.390625 59.5390625 C-21.70226562 60.26222656 -21.70226562 60.26222656 -21 61 C-23.99299816 57.4126476 -26.9598845 54.00241066 -30.4375 50.875 C-33 48 -33 48 -32.875 45.125 C-32.58625 44.42375 -32.2975 43.7225 -32 43 C-32.495 43.99 -32.495 43.99 -33 45 C-37.04089147 44.4835632 -38.55391858 42.60320699 -41.125 39.5625 C-44.34007512 35.8556453 -47.62581296 32.31551165 -51.125 28.875 C-54.702765 25.3414732 -58.06466618 21.71353391 -61.328125 17.890625 C-63.66601392 15.24684407 -66.17603302 12.79719012 -68.71484375 10.34765625 C-70 9 -70 9 -70 8 C-67.6036744 7.94099335 -65.20932571 7.90183675 -62.8125 7.875 C-62.00530518 7.86259277 -61.19811035 7.85018555 -60.36645508 7.83740234 C-55.00213781 7.81919711 -49.71664155 8.07462163 -44.37904358 8.57406616 C-41.13588516 8.87680932 -37.88977637 9.14012027 -34.6434021 9.40582275 C-33.02335613 9.55040393 -31.40491879 9.71451466 -29.78897095 9.89935303 C-20.25599076 10.9815237 -13.75809708 10.96022898 -5.86328125 5.0234375 C-3.83880953 3.40644535 -1.91977021 1.74355755 0 0 Z " fill="#EFF0F0" transform="translate(128,67)"/>
<path d="M0 0 C3.61697371 1.5779616 5.36289722 3.92850896 7.375 7.3125 C8.46059918 11.98057645 8.53077241 16.40768277 7 21 C0.07 21 -6.86 21 -14 21 C-13.34 22.32 -12.68 23.64 -12 25 C-9.17482275 25.46588547 -6.70920439 25.69615501 -3.875 25.75 C-2.74384766 25.79447266 -2.74384766 25.79447266 -1.58984375 25.83984375 C0.27285953 25.91057932 2.13643755 25.95754983 4 26 C4.1484375 31.7734375 4.1484375 31.7734375 2.8125 33.8125 C-2.60652858 37.36289803 -10.82419695 36.55931801 -17 36 C-21.48481469 33.91224144 -24.11715865 31.60250108 -26 27 C-26.79012515 19.36212358 -25.21351924 11.54163078 -21.125 5 C-14.79140447 -0.96103109 -8.38351548 -1.05162504 0 0 Z " fill="#F6FAFB" transform="translate(396,104)"/>
<path d="M0 0 C1.69576172 -0.03867188 1.69576172 -0.03867188 3.42578125 -0.078125 C7.90645247 0.37262516 10.31669711 1.90005715 13.484375 5.01953125 C15.13835713 8.08584228 15.01502306 10.47609519 14.9375 13.9375 C14.92203125 15.09636719 14.9065625 16.25523438 14.890625 17.44921875 C14.6875 20.25 14.6875 20.25 13.6875 21.25 C12.1987814 21.33669432 10.706055 21.35703494 9.21484375 21.34765625 C8.31572266 21.34443359 7.41660156 21.34121094 6.49023438 21.33789062 C5.54470703 21.32951172 4.59917969 21.32113281 3.625 21.3125 C2.67560547 21.30798828 1.72621094 21.30347656 0.74804688 21.29882812 C-1.60553065 21.2870011 -3.95898477 21.27052025 -6.3125 21.25 C-5.9825 22.57 -5.6525 23.89 -5.3125 25.25 C0.2975 25.58 5.9075 25.91 11.6875 26.25 C11.3575 28.89 11.0275 31.53 10.6875 34.25 C3.40824281 36.89700262 -4.52590815 37.64506015 -11.875 34.9375 C-15.33356722 32.54310731 -16.96768066 31.28445802 -18.3125 27.25 C-19.0880898 19.60853324 -18.25983839 12.92918538 -14.3125 6.25 C-9.99150828 1.45502194 -6.33135264 0.0860433 0 0 Z " fill="#F9FCFC" transform="translate(210.3125,103.75)"/>
<path d="M0 0 C0.89847656 0.00257812 1.79695313 0.00515625 2.72265625 0.0078125 C3.61855469 0.00523438 4.51445312 0.00265625 5.4375 0 C7.78515625 0.1328125 7.78515625 0.1328125 9.78515625 1.1328125 C10.77515625 0.8028125 11.76515625 0.4728125 12.78515625 0.1328125 C18.04840148 -0.57192712 21.58129873 -0.78211922 25.91015625 2.5078125 C31.36939981 10.90962705 26.65417687 25.00075837 24.78515625 34.1328125 C23.78515625 35.1328125 23.78515625 35.1328125 21.0625 35.23046875 C19.96035156 35.21886719 18.85820312 35.20726562 17.72265625 35.1953125 C16.61792969 35.18628906 15.51320313 35.17726562 14.375 35.16796875 C13.52035156 35.15636719 12.66570312 35.14476562 11.78515625 35.1328125 C12.26228317 31.90334104 12.74221969 28.67429312 13.22265625 25.4453125 C13.35736328 24.53330078 13.49207031 23.62128906 13.63085938 22.68164062 C13.76298828 21.79541016 13.89511719 20.90917969 14.03125 19.99609375 C14.15169678 19.18438721 14.27214355 18.37268066 14.39624023 17.53637695 C14.79791717 15.05394794 15.27728402 12.59551371 15.78515625 10.1328125 C13.14515625 10.4628125 10.50515625 10.7928125 7.78515625 11.1328125 C6.46515625 19.3828125 5.14515625 27.6328125 3.78515625 36.1328125 C-0.17484375 36.1328125 -4.13484375 36.1328125 -8.21484375 36.1328125 C-7.76622808 27.94557649 -6.61202134 20.02017711 -5.21484375 11.9453125 C-5.03663086 10.9049585 -4.85841797 9.86460449 -4.67480469 8.79272461 C-4.50239258 7.81827393 -4.32998047 6.84382324 -4.15234375 5.83984375 C-3.99636719 4.9578833 -3.84039062 4.07592285 -3.6796875 3.16723633 C-3.04036382 0.36918787 -2.89756277 0.17375156 0 0 Z " fill="#F7FBFC" transform="translate(315.21484375,103.8671875)"/>
<path d="M0 0 C3.60720852 1.69720459 6.12017864 3.44854596 8 7 C8.39853734 11.69742683 8.13120849 16.27649444 8 21 C1.07 21 -5.86 21 -13 21 C-12.67 22.32 -12.34 23.64 -12 25 C-6.39 25.33 -0.78 25.66 5 26 C4.67 28.64 4.34 31.28 4 34 C-2.85869579 36.49407119 -10.68035307 37.36768191 -17.7265625 35.13671875 C-21.70387881 33.1480606 -23.62085411 30.13743768 -25 26 C-25.14817443 17.67048026 -24.80922949 10.3344475 -19 4 C-13.77639469 -1.22360531 -6.97855658 -0.96948658 0 0 Z " fill="#F8FBFB" transform="translate(251,104)"/>
<path d="M0 0 C3.64397278 5.46595916 2.27840959 12.11079277 1.125 18.3515625 C0.75998117 20.11147472 0.38494503 21.86933855 0 23.625 C-0.19078125 24.53378906 -0.3815625 25.44257813 -0.578125 26.37890625 C-1.04319631 28.58799498 -1.51721547 30.7947276 -2 33 C-6.66666667 33 -11.33333333 33 -16 33 C-16.84433594 33.04640625 -17.68867188 33.0928125 -18.55859375 33.140625 C-26.1947122 33.43073533 -26.1947122 33.43073533 -29.6875 31.5625 C-31.67676656 27.67869387 -31.85734286 24.26454165 -31 20 C-29.29103336 16.68712614 -27.0559695 14.52620102 -23.6875 12.84765625 C-20.70105249 11.90570987 -18.31026274 11.7997527 -15.1875 11.875 C-13.72376953 11.90207031 -13.72376953 11.90207031 -12.23046875 11.9296875 C-11.49441406 11.95289062 -10.75835937 11.97609375 -10 12 C-10.33 10.68 -10.66 9.36 -11 8 C-17.93 7.505 -17.93 7.505 -25 7 C-25 4.36 -25 1.72 -25 -1 C-16.59622613 -3.98800849 -7.89594833 -4.53597032 0 0 Z " fill="#F8FBFC" transform="translate(306,106)"/>
<path d="M0 0 C1.17046875 0.02707031 2.3409375 0.05414063 3.546875 0.08203125 C4.43890625 0.11683594 5.3309375 0.15164062 6.25 0.1875 C5.92 2.8275 5.59 5.4675 5.25 8.1875 C3.6 8.5175 1.95 8.8475 0.25 9.1875 C-0.08 10.1775 -0.41 11.1675 -0.75 12.1875 C0.9 12.1875 2.55 12.1875 4.25 12.1875 C3.92 15.1575 3.59 18.1275 3.25 21.1875 C1.27 21.1875 -0.71 21.1875 -2.75 21.1875 C-2.83564209 21.79746826 -2.92128418 22.40743652 -3.00952148 23.03588867 C-3.40069064 25.81580451 -3.79407444 28.59540264 -4.1875 31.375 C-4.32220703 32.33470703 -4.45691406 33.29441406 -4.59570312 34.28320312 C-4.72783203 35.21455078 -4.85996094 36.14589844 -4.99609375 37.10546875 C-5.11654053 37.95906982 -5.2369873 38.8126709 -5.36108398 39.69213867 C-5.75238695 42.20281514 -6.25167147 44.69585736 -6.75 47.1875 C-10.71 47.1875 -14.67 47.1875 -18.75 47.1875 C-18.08312793 39.04893881 -17.09623285 31.01068813 -15.875 22.9375 C-15.71386719 21.80570313 -15.55273438 20.67390625 -15.38671875 19.5078125 C-13.34980506 6.02312809 -13.34980506 6.02312809 -8.984375 1.26171875 C-5.89386659 -0.2241026 -3.409264 -0.10227792 0 0 Z " fill="#F8FBFC" transform="translate(166.75,91.8125)"/>
<path d="M0 0 C0.70189453 0.00451172 1.40378906 0.00902344 2.12695312 0.01367188 C3.85550538 0.02543073 5.58401365 0.04336546 7.3125 0.0625 C8.38424763 3.71438082 8.07661467 6.32682828 7.3125 10.0625 C1.3725 10.5575 1.3725 10.5575 -4.6875 11.0625 C-6.02333899 15.90491633 -6.94078119 19.99687617 -6.6875 25.0625 C-3.0575 25.3925 0.5725 25.7225 4.3125 26.0625 C3.4375 32.8125 3.4375 32.8125 2.3125 35.0625 C-2.58956503 36.69652168 -7.57203874 36.56713334 -12.6875 36.0625 C-16.42838973 33.96760175 -18.06311662 31.95395759 -19.6875 28.0625 C-20.51829593 20.98851703 -20.22794972 12.75428654 -16.1015625 6.7578125 C-11.07111798 0.79344579 -7.73730936 -0.09391692 0 0 Z " fill="#F7FBFB" transform="translate(363.6875,103.9375)"/>
<path d="M0 0 C3.96 0 7.92 0 12 0 C11.32671632 8.89040498 10.00563894 17.59174925 8.5 26.375 C8.27177325 27.72780353 8.04390669 29.08066788 7.81640625 30.43359375 C6.93602408 35.63774636 6.03520807 40.82395963 5 46 C1.04 46 -2.92 46 -7 46 C-6.32671632 37.10959502 -5.00563894 28.40825075 -3.5 19.625 C-3.27177325 18.27219647 -3.04390669 16.91933212 -2.81640625 15.56640625 C-1.93602408 10.36225364 -1.03520807 5.17604037 0 0 Z " fill="#F8FBFC" transform="translate(266,93)"/>
<path d="M0 0 C0.98226562 0.01160156 1.96453125 0.02320312 2.9765625 0.03515625 C3.95367187 0.04417969 4.93078125 0.05320312 5.9375 0.0625 C7.25621094 0.07990234 7.25621094 0.07990234 8.6015625 0.09765625 C9.5915625 0.09765625 10.5815625 0.09765625 11.6015625 0.09765625 C13.93489583 0.09765625 16.26822917 0.09765625 18.6015625 0.09765625 C17.9415625 3.39765625 17.2815625 6.69765625 16.6015625 10.09765625 C13.6315625 10.09765625 10.6615625 10.09765625 7.6015625 10.09765625 C7.51592041 10.74839111 7.43027832 11.39912598 7.34204102 12.06958008 C6.95242156 15.01684999 6.55829467 17.96349996 6.1640625 20.91015625 C6.02935547 21.93431641 5.89464844 22.95847656 5.75585938 24.01367188 C5.62373047 24.99658203 5.49160156 25.97949219 5.35546875 26.9921875 C5.23502197 27.89815674 5.1145752 28.80412598 4.99047852 29.73754883 C4.6015625 32.09765625 4.6015625 32.09765625 3.6015625 35.09765625 C-0.0284375 35.09765625 -3.6584375 35.09765625 -7.3984375 35.09765625 C-7.62123008 27.34303713 -6.80624463 20.16477004 -5.4609375 12.53515625 C-5.27853516 11.44396484 -5.09613281 10.35277344 -4.90820312 9.22851562 C-3.35036667 0.13641558 -3.35036667 0.13641558 0 0 Z " fill="#F5FAFB" transform="translate(176.3984375,103.90234375)"/>
<path d="M0 0 C-0.44716424 7.58637268 -1.37669152 15.05033224 -2.5 22.5625 C-2.63059814 23.44325195 -2.76119629 24.32400391 -2.89575195 25.23144531 C-3.41371989 28.62070732 -3.91290536 31.73871609 -5 35 C-8.96 35 -12.92 35 -17 35 C-16.79570229 32.139832 -16.5797137 29.28001654 -16.3046875 26.42578125 C-16.11221928 24.26174752 -15.98385658 22.0902027 -15.9453125 19.91796875 C-15.53162464 13.60509204 -13.91310856 10.37327676 -9.26074219 6.24829102 C-1.65731424 0 -1.65731424 0 0 0 Z " fill="#F2F9FB" transform="translate(420,105)"/>
<path d="M0 0 C16.5 0 33 0 50 0 C46.53204151 1.73397924 43.92842329 2.60205141 40.203125 3.4375 C39.0790625 3.69273438 37.955 3.94796875 36.796875 4.2109375 C35.62640625 4.47132812 34.4559375 4.73171875 33.25 5 C30.94256608 5.52020274 28.635271 6.04102179 26.328125 6.5625 C25.23435547 6.80742188 24.14058594 7.05234375 23.01367188 7.3046875 C20.4884243 7.88731105 17.98797945 8.51987215 15.484375 9.1875 C9.93510383 10.48150045 9.93510383 10.48150045 7 10 C4.98046875 8.3203125 4.98046875 8.3203125 3.1875 6.125 C2.28064453 5.04605469 2.28064453 5.04605469 1.35546875 3.9453125 C0 2 0 2 0 0 Z " fill="#EEEFF0" transform="translate(132,67)"/>
<path d="M0 0 C2.475 0.495 2.475 0.495 5 1 C5 3.64 5 6.28 5 9 C9.62 9 14.24 9 19 9 C19.495 11.475 19.495 11.475 20 14 C19.27554688 14.03738281 18.55109375 14.07476562 17.8046875 14.11328125 C11.23830112 14.55979552 6.26014795 15.17453845 1.125 19.625 C-1.02901823 24.17237181 -0.5621903 29.3134291 1 34 C1.66 34.33 2.32 34.66 3 35 C1.43840941 35.48212214 -0.12431928 35.96055873 -1.6875 36.4375 C-2.55761719 36.70433594 -3.42773438 36.97117188 -4.32421875 37.24609375 C-6.87025921 37.96344529 -9.4003423 38.517541 -12 39 C-12 38.34 -12 37.68 -12 37 C-13.65 36.67 -15.3 36.34 -17 36 C-17 35.67 -17 35.34 -17 35 C-13.04 35 -9.08 35 -5 35 C-4.87753906 33.62070313 -4.75507813 32.24140625 -4.62890625 30.8203125 C-3.99304078 24.4616578 -2.97466487 18.17861689 -1.9375 11.875 C-1.75123047 10.72773437 -1.56496094 9.58046875 -1.37304688 8.3984375 C-0.91805826 5.59850755 -0.46032487 2.79905669 0 0 Z " fill="#169CD4" transform="translate(276,104)"/>
<path d="M0 0 C2 3 2 3 2 5 C3.32 4.67 4.64 4.34 6 4 C6 4.99 6 5.98 6 7 C5.05898438 7.64324219 4.11796875 8.28648438 3.1484375 8.94921875 C-1.59686169 12.66929898 -1.62286721 18.16460374 -2.375 23.8125 C-2.53871094 24.88693359 -2.70242188 25.96136719 -2.87109375 27.06835938 C-3.27023696 29.70974826 -3.64561581 32.35229834 -4 35 C-5.48828125 33.69921875 -5.48828125 33.69921875 -7 32 C-7.1875 28.8125 -7.1875 28.8125 -7 26 C-8.13179688 26.02320313 -9.26359375 26.04640625 -10.4296875 26.0703125 C-11.91145175 26.08906901 -13.39322312 26.10726934 -14.875 26.125 C-15.62136719 26.14175781 -16.36773437 26.15851563 -17.13671875 26.17578125 C-19.09194461 26.1933959 -21.04742021 26.10320189 -23 26 C-23.66 25.34 -24.32 24.68 -25 24 C-25 23.01 -25 22.02 -25 21 C-18.07 21 -11.14 21 -4 21 C-3.55010168 12.06116891 -3.55010168 12.06116891 -7 4 C-7.33 3.34 -7.66 2.68 -8 2 C-6.02 1.67 -4.04 1.34 -2 1 C-2.33 2.32 -2.66 3.64 -3 5 C-2.34 5 -1.68 5 -1 5 C-0.67 3.35 -0.34 1.7 0 0 Z " fill="#0C97D1" transform="translate(407,104)"/>
<path d="M0 0 C2.05078125 0.03255208 4.1015625 0.06510417 6.15234375 0.09765625 C4.39212577 20.61809222 4.39212577 20.61809222 2.15234375 25.09765625 C6.11234375 25.09765625 10.07234375 25.09765625 14.15234375 25.09765625 C14.15234375 25.42765625 14.15234375 25.75765625 14.15234375 26.09765625 C9.53234375 26.09765625 4.91234375 26.09765625 0.15234375 26.09765625 C-0.17765625 27.08765625 -0.50765625 28.07765625 -0.84765625 29.09765625 C-1.17765625 28.43765625 -1.50765625 27.77765625 -1.84765625 27.09765625 C-2.50765625 27.09765625 -3.16765625 27.09765625 -3.84765625 27.09765625 C-3.84765625 26.10765625 -3.84765625 25.11765625 -3.84765625 24.09765625 C-4.50765625 24.09765625 -5.16765625 24.09765625 -5.84765625 24.09765625 C-5.37537044 20.28427046 -4.89368119 16.47213193 -4.41015625 12.66015625 C-4.27544922 11.57154297 -4.14074219 10.48292969 -4.00195312 9.36132812 C-3.86982422 8.32685547 -3.73769531 7.29238281 -3.6015625 6.2265625 C-3.48111572 5.2682251 -3.36066895 4.3098877 -3.23657227 3.32250977 C-2.68054624 0.14167792 -2.68054624 0.14167792 0 0 Z M-3.84765625 29.09765625 C-1.84765625 30.09765625 -1.84765625 30.09765625 -1.84765625 30.09765625 Z " fill="#0996D1" transform="translate(324.84765625,113.90234375)"/>
<path d="M0 0 C4.98727344 2.02474777 6.36752475 5.46629262 9 10 C4.38 10.33 -0.24 10.66 -5 11 C-4.34 11.66 -3.68 12.32 -3 13 C-5.64 13 -8.28 13 -11 13 C-11 13.99 -11 14.98 -11 16 C-12.06476563 16.5053125 -13.12953125 17.010625 -14.2265625 17.53125 C-18.5548848 20.00831505 -20.26390576 23.09832578 -22.375 27.5 C-22.88740234 28.49580078 -22.88740234 28.49580078 -23.41015625 29.51171875 C-25.28068079 33.20142781 -25.28068079 33.20142781 -26.41259766 37.15820312 C-26.60644043 37.76599609 -26.8002832 38.37378906 -27 39 C-28.485 39.495 -28.485 39.495 -30 40 C-28.46527032 35.27775484 -26.76054874 30.64144669 -25 26 C-25.66 25.67 -26.32 25.34 -27 25 C-24 23 -24 23 -22 23 C-20.02 19.04 -18.04 15.08 -16 11 C-17.65 11 -19.3 11 -21 11 C-21 10.67 -21 10.34 -21 10 C-19.99839844 10.103125 -18.99679688 10.20625 -17.96484375 10.3125 C-12.88069478 9.9117789 -10.48094063 8.06840854 -6.5625 5 C-5.92634766 4.52304688 -5.29019531 4.04609375 -4.63476562 3.5546875 C-3.07858054 2.38462352 -1.5376627 1.19430112 0 0 Z " fill="#CFE3EC" transform="translate(128,67)"/>
<path d="M0 0 C0.33 0.66 0.66 1.32 1 2 C1.66 2.33 2.32 2.66 3 3 C1.7934375 4.546875 1.7934375 4.546875 0.5625 6.125 C-3.03162528 11.85921698 -3.49366372 18.3509668 -3 25 C-1.65661734 28.26120307 -1.65661734 28.26120307 0 31 C0.33 31.66 0.66 32.32 1 33 C-1.97 33.495 -1.97 33.495 -5 34 C-5 33.34 -5 32.68 -5 32 C-5.66 32 -6.32 32 -7 32 C-7 32.99 -7 33.98 -7 35 C-7.66 35 -8.32 35 -9 35 C-8.67 31.7 -8.34 28.4 -8 25 C-13.61 25 -19.22 25 -25 25 C-25.33 23.35 -25.66 21.7 -26 20 C-16.1 19.505 -16.1 19.505 -6 19 C-5.87625 17.2675 -5.7525 15.535 -5.625 13.75 C-5.35674661 9.99445248 -4.91302307 7.26613695 -3 4 C-2.34 4 -1.68 4 -1 4 C-0.67 2.68 -0.34 1.36 0 0 Z " fill="#0E99D2" transform="translate(230,105)"/>
<path d="M0 0 C1.9375 0.6875 1.9375 0.6875 4 2 C4.625 4.5625 4.625 4.5625 5 7 C5.66 7.33 6.32 7.66 7 8 C6.52430071 11.41715878 6.04383638 14.83363107 5.5625 18.25 C5.42779297 19.21808594 5.29308594 20.18617187 5.15429688 21.18359375 C5.02216797 22.11816406 4.89003906 23.05273438 4.75390625 24.015625 C4.63345947 24.87446289 4.5130127 25.73330078 4.38891602 26.61816406 C4.0346004 28.78809698 3.56926779 30.87759781 3 33 C2.01 33 1.02 33 0 33 C-0.33 33.99 -0.66 34.98 -1 36 C-1 35.34 -1 34.68 -1 34 C-2.485 33.505 -2.485 33.505 -4 33 C-3.01 33 -2.02 33 -1 33 C-0.67 30.36 -0.34 27.72 0 25 C-5.61 25 -11.22 25 -17 25 C-17.33 23.35 -17.66 21.7 -18 20 C-11.07 20 -4.14 20 3 20 C2.87625 17.751875 2.7525 15.50375 2.625 13.1875 C2.55539062 11.92292969 2.48578125 10.65835938 2.4140625 9.35546875 C2.23897061 5.87244766 2.23897061 5.87244766 0 3 C0 2.01 0 1.02 0 0 Z " fill="#21A0D6" transform="translate(256,105)"/>
<path d="M0 0 C1.25006836 0.05027344 1.25006836 0.05027344 2.52539062 0.1015625 C3.37037109 0.11960938 4.21535156 0.13765625 5.0859375 0.15625 C7.17040635 0.20335664 9.25429207 0.27510017 11.33789062 0.3515625 C11.00789063 2.9915625 10.67789063 5.6315625 10.33789062 8.3515625 C4.11432245 10.6146782 -2.06982313 11.00693599 -8.66210938 10.3515625 C-9.65210938 9.6915625 -10.64210937 9.0315625 -11.66210938 8.3515625 C-11.0343537 6.99947336 -10.35791204 5.66992545 -9.66210938 4.3515625 C-9.33210937 3.6503125 -9.00210938 2.9490625 -8.66210938 2.2265625 C-5.86097144 -0.39950431 -3.7305959 -0.05992925 0 0 Z " fill="#FBFCFC" transform="translate(244.662109375,129.6484375)"/>
<path d="M0 0 C0.66 0 1.32 0 2 0 C2 0.66 2 1.32 2 2 C2.66 2 3.32 2 4 2 C3.54020471 6.69827184 1.80191125 8.65954742 -1.5625 11.875 C-2.46613281 12.74253906 -3.36976562 13.61007813 -4.30078125 14.50390625 C-9.72139029 19.51659681 -15.30579105 24.30227762 -21 29 C-20.01 24.05 -19.02 19.1 -18 14 C-17.01 13.67 -16.02 13.34 -15 13 C-14.67 12.34 -14.34 11.68 -14 11 C-13.67 11.99 -13.34 12.98 -13 14 C-12.34 14 -11.68 14 -11 14 C-10.87625 13.38125 -10.7525 12.7625 -10.625 12.125 C-10 10 -10 10 -8 8 C-4.875 8.375 -4.875 8.375 -2 9 C-1.87625 8.360625 -1.7525 7.72125 -1.625 7.0625 C-1.315625 6.0415625 -1.315625 6.0415625 -1 5 C-0.34 4.67 0.32 4.34 1 4 C0.67 2.68 0.34 1.36 0 0 Z " fill="#EFF0F0" transform="translate(108,129)"/>
<path d="M0 0 C6.93 0 13.86 0 21 0 C18.5552651 2.4447349 17.24242172 3.57020764 14.3125 5.04296875 C13.26449219 5.56987305 13.26449219 5.56987305 12.1953125 6.10742188 C11.10863281 6.64206055 11.10863281 6.64206055 10 7.1875 C8.91332031 7.73954102 8.91332031 7.73954102 7.8046875 8.30273438 C6.75667969 8.82383789 6.75667969 8.82383789 5.6875 9.35546875 C5.05199219 9.67153076 4.41648437 9.98759277 3.76171875 10.31323242 C2 11 2 11 -1 11 C-1.07622858 7.03611362 -0.9681648 3.8726592 0 0 Z " fill="#E0EAEF" transform="translate(422,104)"/>
<path d="M0 0 C6.40837237 2.08962346 12.74453297 4.3397062 19.0625 6.6875 C19.92810547 7.00783203 20.79371094 7.32816406 21.68554688 7.65820312 C23.79084627 8.43751284 25.89565114 9.21812804 28 10 C28 10.33 28 10.66 28 11 C24.66475308 11.06916411 21.33561346 11.03733896 18 11 C16.19789062 11.02900391 16.19789062 11.02900391 14.359375 11.05859375 C4.91236745 10.91036664 4.91236745 10.91036664 2.21875 8.22265625 C0.81447006 5.44920336 0 3.1173571 0 0 Z " fill="#EDEFEF" transform="translate(81,65)"/>
<path d="M0 0 C0.66 0.99 1.32 1.98 2 3 C1.071875 3.9590625 1.071875 3.9590625 0.125 4.9375 C-4.36123847 11.40296132 -4.59612268 19.3197217 -4 27 C-3.67 27.99 -3.34 28.98 -3 30 C-3.99 30 -4.98 30 -6 30 C-6 29.34 -6 28.68 -6 28 C-6.66 28 -7.32 28 -8 28 C-8.33 28.66 -8.66 29.32 -9 30 C-8.14700544 20.65335753 -8.14700544 20.65335753 -7.4375 17.5 C-6.44203672 11.81163842 -6.02372154 6.09378883 -9 1 C-7.66666667 1 -6.33333333 1 -5 1 C-3.33178677 0.67449498 -1.66500443 0.34153937 0 0 Z " fill="#0C97D2" transform="translate(349,105)"/>
<path d="M0 0 C3.47132095 1.40929697 4.88093274 2.90605083 6.75 6.125 C7.17796875 6.84945312 7.6059375 7.57390625 8.046875 8.3203125 C8.36140625 8.87460938 8.6759375 9.42890625 9 10 C6.95840905 10.0272616 4.91671037 10.04651345 2.875 10.0625 C1.73804688 10.07410156 0.60109375 10.08570312 -0.5703125 10.09765625 C-3.8129156 10.005327 -6.81932612 9.61389906 -10 9 C-6.83047153 5.73991357 -3.60062011 2.77762123 0 0 Z " fill="#F0F0F0" transform="translate(128,67)"/>
<path d="M0 0 C0.66 0 1.32 0 2 0 C0.60073684 10.38747119 -1.12757198 20.68916301 -3 31 C-3.99 30.67 -4.98 30.34 -6 30 C-5.28174711 23.97504376 -4.39912131 17.99057867 -3.4375 12 C-3.29892578 11.12988281 -3.16035156 10.25976562 -3.01757812 9.36328125 C-2.67957148 7.24199817 -2.33995416 5.12097184 -2 3 C-1.34 3 -0.68 3 0 3 C0 2.01 0 1.02 0 0 Z " fill="#1098D4" transform="translate(310,108)"/>
<path d="M0 0 C6.6 0 13.2 0 20 0 C19.33333333 1.33333333 18.66666667 2.66666667 18 4 C12.39 4 6.78 4 1 4 C0.67 2.68 0.34 1.36 0 0 Z " fill="#0194D0" transform="translate(238,126)"/>
<path d="M0 0 C0.79921875 0.00902344 1.5984375 0.01804687 2.421875 0.02734375 C3.02515625 0.03894531 3.6284375 0.05054687 4.25 0.0625 C4.58 1.7125 4.91 3.3625 5.25 5.0625 C-2.67 5.5575 -2.67 5.5575 -10.75 6.0625 C-8.75 1.0625 -8.75 1.0625 -6.921875 0.25390625 C-4.59820831 0.04912267 -2.33287444 -0.03430698 0 0 Z " fill="#0393CF" transform="translate(290.75,112.9375)"/>
<path d="M0 0 C0.66 0 1.32 0 2 0 C2 0.66 2 1.32 2 2 C2.66 2 3.32 2 4 2 C3.52002515 6.57196387 1.90638385 8.66138437 -1.3125 11.875 C-2.09238281 12.67679688 -2.87226562 13.47859375 -3.67578125 14.3046875 C-6 16 -6 16 -8.29296875 15.7578125 C-8.85628906 15.50773438 -9.41960937 15.25765625 -10 15 C-9.375 12.5625 -9.375 12.5625 -8 10 C-4.875 9.1875 -4.875 9.1875 -2 9 C-1.87625 8.360625 -1.7525 7.72125 -1.625 7.0625 C-1.41875 6.381875 -1.2125 5.70125 -1 5 C-0.34 4.67 0.32 4.34 1 4 C0.67 2.68 0.34 1.36 0 0 Z " fill="#E4EDF0" transform="translate(108,129)"/>
<path d="M0 0 C1.46227272 0.02997826 1.46227272 0.02997826 2.9540863 0.06056213 C4.05515213 0.08065842 5.15621796 0.1007547 6.29064941 0.12145996 C8.08749428 0.16201256 8.08749428 0.16201256 9.92063904 0.2033844 C11.74969032 0.23880089 11.74969032 0.23880089 13.61569214 0.27493286 C17.5286508 0.35179871 21.44142283 0.43572403 25.35423279 0.51979065 C27.9994058 0.5729884 30.64458805 0.62572892 33.28977966 0.67799377 C39.79054738 0.80744472 46.29117535 0.94269921 52.79173279 1.08229065 C52.79173279 1.74229065 52.79173279 2.40229065 52.79173279 3.08229065 C35.30173279 2.75229065 17.81173279 2.42229065 -0.20826721 2.08229065 C-0.53826721 2.74229065 -0.86826721 3.40229065 -1.20826721 4.08229065 C-1.86826721 3.09229065 -2.52826721 2.10229065 -3.20826721 1.08229065 C-2.20826721 0.08229065 -2.20826721 0.08229065 0 0 Z " fill="#3AABD9" transform="translate(132.20826721191406,64.91770935058594)"/>
<path d="M0 0 C2.475 0.495 2.475 0.495 5 1 C5 3.64 5 6.28 5 9 C4.34 9 3.68 9 3 9 C3 10.65 3 12.3 3 14 C2.01 13.67 1.02 13.34 0 13 C0 8.71 0 4.42 0 0 Z " fill="#199DD4" transform="translate(276,104)"/>
<path d="M0 0 C0.33 0.66 0.66 1.32 1 2 C0.21142578 3.90771484 0.21142578 3.90771484 -1.0546875 6.2109375 C-1.50457031 7.04367188 -1.95445313 7.87640625 -2.41796875 8.734375 C-2.89878906 9.60578125 -3.37960938 10.4771875 -3.875 11.375 C-4.81385379 13.08898375 -5.74889974 14.8050601 -6.6796875 16.5234375 C-7.09976074 17.28575684 -7.51983398 18.04807617 -7.95263672 18.83349609 C-9.0831821 20.94692747 -9.0831821 20.94692747 -9.45751953 23.21728516 C-9.63653809 23.80558105 -9.81555664 24.39387695 -10 25 C-10.99 25.33 -11.98 25.66 -13 26 C-11.46527032 21.27775484 -9.76054874 16.64144669 -8 12 C-8.66 11.67 -9.32 11.34 -10 11 C-7 9 -7 9 -5 9 C-3.35 6.03 -1.7 3.06 0 0 Z " fill="#7AC4E1" transform="translate(111,81)"/>
<path d="M0 0 C2 2 2 2 2 5 C5.3 3.68 8.6 2.36 12 1 C12 4 12 4 10.75 5.5625 C8.84129394 7.13036569 7.3520907 8.21596977 5 9 C2.75 8.125 2.75 8.125 1 7 C0.67 7.99 0.34 8.98 0 10 C-1.231394 6.30581799 -0.64432764 3.7943739 0 0 Z " fill="#0996D1" transform="translate(419,110)"/>
<path d="M0 0 C1.98 1.65 3.96 3.3 6 5 C3.25046054 7.74953946 0.7649803 8.17042807 -3 9 C-5.9375 8.625 -5.9375 8.625 -8 8 C-8.33 8.66 -8.66 9.32 -9 10 C-9 9.34 -9 8.68 -9 8 C-11.31 8 -13.62 8 -16 8 C-16 7.67 -16 7.34 -16 7 C-15.21753906 6.95101562 -14.43507813 6.90203125 -13.62890625 6.8515625 C-12.61699219 6.77679688 -11.60507812 6.70203125 -10.5625 6.625 C-9.55316406 6.55539063 -8.54382813 6.48578125 -7.50390625 6.4140625 C-6.26447266 6.20910156 -6.26447266 6.20910156 -5 6 C-4.67 5.34 -4.34 4.68 -4 4 C-2.02 4.66 -0.04 5.32 2 6 C2 5.34 2 4.68 2 4 C1.01 3.67 0.02 3.34 -1 3 C-0.67 2.01 -0.34 1.02 0 0 Z " fill="#169DD3" transform="translate(371,133)"/>
<path d="M0 0 C5.28 0 10.56 0 16 0 C15.67 2.64 15.34 5.28 15 8 C13.68 8.33 12.36 8.66 11 9 C11.33 7.35 11.66 5.7 12 4 C11.34 4 10.68 4 10 4 C10 3.01 10 2.02 10 1 C6.7 1 3.4 1 0 1 C0 0.67 0 0.34 0 0 Z " fill="#EAF5F7" transform="translate(240,130)"/>
<path d="M0 0 C2.4375 0.1875 2.4375 0.1875 3.4375 1.1875 C3.47813832 2.85367115 3.480221 4.52138095 3.4375 6.1875 C0.4675 6.1875 -2.5025 6.1875 -5.5625 6.1875 C-4.09045031 0.29930124 -4.09045031 0.29930124 0 0 Z " fill="#1A9ED4" transform="translate(210.5625,112.8125)"/>
<path d="M0 0 C2.5 0.125 2.5 0.125 3.5 1.125 C3.54063832 2.79117115 3.542721 4.45888095 3.5 6.125 C0.53 6.125 -2.44 6.125 -5.5 6.125 C-3.20588235 0.16029412 -3.20588235 0.16029412 0 0 Z " fill="#2CA6D8" transform="translate(388.5,112.875)"/>
<path d="M0 0 C2.5 0.125 2.5 0.125 3.5 1.125 C3.54063832 2.79117115 3.542721 4.45888095 3.5 6.125 C0.53 6.125 -2.44 6.125 -5.5 6.125 C-3.20588235 0.16029412 -3.20588235 0.16029412 0 0 Z " fill="#0F99D3" transform="translate(244.5,112.875)"/>
<path d="M0 0 C0.33 0.66 0.66 1.32 1 2 C1.66 2.33 2.32 2.66 3 3 C2.65066406 3.49628906 2.30132812 3.99257812 1.94140625 4.50390625 C-1.14110751 9.10584605 -2.65389941 12.46239061 -3 18 C-5 16 -5 16 -5.25 12.125 C-5.18064077 8.94603525 -4.80254921 6.70382382 -3 4 C-2.34 4 -1.68 4 -1 4 C-0.67 2.68 -0.34 1.36 0 0 Z " fill="#0C97D2" transform="translate(230,105)"/>
<path d="M0 0 C0.93423645 3.01031744 1.04449911 3.86650268 0 7 C0.66 7.33 1.32 7.66 2 8 C1.67 10.31 1.34 12.62 1 15 C0.01 15.33 -0.98 15.66 -2 16 C-1.67 13.03 -1.34 10.06 -1 7 C-2.65 7 -4.3 7 -6 7 C-5.67 5.68 -5.34 4.36 -5 3 C-3.35 3 -1.7 3 0 3 C0 2.01 0 1.02 0 0 Z " fill="#27A2D7" transform="translate(172,97)"/>
<path d="M0 0 C3 3 6 6 9 9 C3.54724114 9.97758625 -1.42516763 9.97344509 -6.9375 9.5625 C-8.10635742 9.48418945 -8.10635742 9.48418945 -9.29882812 9.40429688 C-11.19966772 9.27601936 -13.09990904 9.13892679 -15 9 C-15 8.67 -15 8.34 -15 8 C-8.73 7.67 -2.46 7.34 4 7 C2.68 5.35 1.36 3.7 0 2 C0 1.34 0 0.68 0 0 Z " fill="#3BADD9" transform="translate(132,69)"/>
<path d="M0 0 C1.32 0 2.64 0 4 0 C3.67 2.97 3.34 5.94 3 9 C2.01 9 1.02 9 0 9 C-0.33 9.99 -0.66 10.98 -1 12 C-1 11.34 -1 10.68 -1 10 C-1.99 9.67 -2.98 9.34 -4 9 C-3.01 9 -2.02 9 -1 9 C-0.67 6.03 -0.34 3.06 0 0 Z " fill="#149AD4" transform="translate(256,129)"/>
<path d="M0 0 C0.33 0.99 0.66 1.98 1 3 C0.67 3.66 0.34 4.32 0 5 C3.96 5 7.92 5 12 5 C12 5.33 12 5.66 12 6 C7.38 6 2.76 6 -2 6 C-2.33 6.99 -2.66 7.98 -3 9 C-3.33 8.34 -3.66 7.68 -4 7 C-4.66 7 -5.32 7 -6 7 C-5.67 6.01 -5.34 5.02 -5 4 C-2.4375 2.8125 -2.4375 2.8125 0 2 C0 1.34 0 0.68 0 0 Z M-6 9 C-4 10 -4 10 -4 10 Z " fill="#2BA6D7" transform="translate(327,134)"/>
<path d="M0 0 C0.99 0.33 1.98 0.66 3 1 C2.34 5.62 1.68 10.24 1 15 C0.01 14.67 -0.98 14.34 -2 14 C-1.43393721 9.30976546 -0.81462495 4.65499974 0 0 Z " fill="#24A1D7" transform="translate(306,124)"/>
<path d="M0 0 C-0.78375 0.70125 -1.5675 1.4025 -2.375 2.125 C-5.08360818 5.09157086 -6.01722715 7.1582516 -7 11 C-7.99 10.67 -8.98 10.34 -10 10 C-10.33 9.01 -10.66 8.02 -11 7 C-10.01 7 -9.02 7 -8 7 C-8 5.02 -8 3.04 -8 1 C-4.93251126 -0.86240388 -3.40254489 -1.2151946 0 0 Z " fill="#149BD4" transform="translate(379,107)"/>
<path d="M0 0 C1.4540625 0.0309375 1.4540625 0.0309375 2.9375 0.0625 C2.9375 1.7125 2.9375 3.3625 2.9375 5.0625 C0.9575 5.3925 -1.0225 5.7225 -3.0625 6.0625 C-3.44468767 4.40635343 -3.77645102 2.73792976 -4.0625 1.0625 C-3.0625 0.0625 -3.0625 0.0625 0 0 Z " fill="#129AD4" transform="translate(291.0625,124.9375)"/>
<path d="M0 0 C0.66 0.99 1.32 1.98 2 3 C1.67 3.99 1.34 4.98 1 6 C1.99 6.99 2.98 7.98 4 9 C1.69 10.98 -0.62 12.96 -3 15 C-2.01 10.05 -1.02 5.1 0 0 Z " fill="#D0E4EC" transform="translate(90,143)"/>
<path d="M0 0 C1.17539996 0.92652701 2.34010577 1.86663387 3.5 2.8125 C4.1496875 3.33457031 4.799375 3.85664062 5.46875 4.39453125 C7 6 7 6 7 9 C5.35 9.33 3.7 9.66 2 10 C0.68373308 6.38026598 0 3.90432869 0 0 Z " fill="#1399D3" transform="translate(82,101)"/>
<path d="M0 0 C2.86299506 2.86299506 2.99421225 4.65852284 3.0625 8.6875 C3.041875 9.780625 3.02125 10.87375 3 12 C2.67 11.34 2.34 10.68 2 10 C0.68 10.33 -0.64 10.66 -2 11 C-1.85892253 9.54119891 -1.71197585 8.08296449 -1.5625 6.625 C-1.48128906 5.81289062 -1.40007812 5.00078125 -1.31640625 4.1640625 C-1 2 -1 2 0 0 Z " fill="#129AD1" transform="translate(139,78)"/>
<path d="M0 0 C0.99 0 1.98 0 3 0 C2.67 2.64 2.34 5.28 2 8 C0.68 8.33 -0.64 8.66 -2 9 C-2.25 3.375 -2.25 3.375 0 0 Z " fill="#EBF6F9" transform="translate(219,130)"/>
<path d="M0 0 C0.66 0 1.32 0 2 0 C2 0.66 2 1.32 2 2 C2.66 2 3.32 2 4 2 C3.84518205 4.70931419 3.51827919 6.46584039 1.59765625 8.4453125 C0.10228292 9.67679642 -1.4462924 10.8429837 -3 12 C-2.6875 9.125 -2.6875 9.125 -2 6 C-1.01 5.34 -0.02 4.68 1 4 C0.67 2.68 0.34 1.36 0 0 Z " fill="#BADCEA" transform="translate(108,129)"/>
<path d="M0 0 C4.62 0 9.24 0 14 0 C10.68987756 3.31012244 9.46840411 3.50351065 5 4 C5 3.34 5 2.68 5 2 C3.35 1.67 1.7 1.34 0 1 C0 0.67 0 0.34 0 0 Z " fill="#30A7DA" transform="translate(259,139)"/>
<path d="M0 0 C-0.33 2.31 -0.66 4.62 -1 7 C-1.639375 7.12375 -2.27875 7.2475 -2.9375 7.375 C-3.9584375 7.684375 -3.9584375 7.684375 -5 8 C-5.33 8.66 -5.66 9.32 -6 10 C-6 7.69 -6 5.38 -6 3 C-5.01 3.495 -5.01 3.495 -4 4 C-3.67 3.01 -3.34 2.02 -3 1 C-1 0 -1 0 0 0 Z " fill="#0292CE" transform="translate(328,129)"/>
<path d="M0 0 C1.32 0.66 2.64 1.32 4 2 C3.01 2.495 3.01 2.495 2 3 C2.33 3.99 2.66 4.98 3 6 C2.34 6 1.68 6 1 6 C0.67 5.34 0.34 4.68 0 4 C-0.66 4 -1.32 4 -2 4 C-2 4.66 -2 5.32 -2 6 C-3.98 6.33 -5.96 6.66 -8 7 C-5.4837822 4.39391727 -2.94865641 2.10618315 0 0 Z " fill="#E3E9EF" transform="translate(128,67)"/>
<path d="M0 0 C4.62 0 9.24 0 14 0 C10.61885051 1.69057475 8.3700175 2.45815467 4.75 3.125 C3.41195312 3.37636719 3.41195312 3.37636719 2.046875 3.6328125 C1.37140625 3.75398438 0.6959375 3.87515625 0 4 C0 2.68 0 1.36 0 0 Z " fill="#E6ECED" transform="translate(168,67)"/>
<path d="M0 0 C0.66 0.99 1.32 1.98 2 3 C2.66 2.34 3.32 1.68 4 1 C3.67 3.31 3.34 5.62 3 8 C-0.96 8 -4.92 8 -9 8 C-9 7.67 -9 7.34 -9 7 C-6.36 6.67 -3.72 6.34 -1 6 C-0.67 4.02 -0.34 2.04 0 0 Z " fill="#BCE3F1" transform="translate(316,132)"/>
<path d="M0 0 C0.66 0 1.32 0 2 0 C1.63076923 7.26153846 1.63076923 7.26153846 -1.5625 11 C-2.366875 11.66 -3.17125 12.32 -4 13 C-4.33 12.01 -4.66 11.02 -5 10 C-4.34 9.67 -3.68 9.34 -3 9 C-2.2833793 6.68152126 -1.61757973 4.34680297 -1 2 C-0.67 1.34 -0.34 0.68 0 0 Z " fill="#DFE9ED" transform="translate(132,106)"/>
<path d="M0 0 C0.66 0 1.32 0 2 0 C1.67 2.31 1.34 4.62 1 7 C4.96 7 8.92 7 13 7 C13 7.33 13 7.66 13 8 C8.71 8 4.42 8 0 8 C0 7.34 0 6.68 0 6 C-0.66 6 -1.32 6 -2 6 C-1.34 4.02 -0.68 2.04 0 0 Z " fill="#39ABDB" transform="translate(147,132)"/>
<path d="M0 0 C0.66 0.99 1.32 1.98 2 3 C4.88595946 3.58481121 4.88595946 3.58481121 8.125 3.6875 C9.22070312 3.75324219 10.31640625 3.81898438 11.4453125 3.88671875 C12.28835937 3.92410156 13.13140625 3.96148437 14 4 C14 4.33 14 4.66 14 5 C10.37 5 6.74 5 3 5 C3 5.66 3 6.32 3 7 C1.35 6.67 -0.3 6.34 -2 6 C-1.34 4.02 -0.68 2.04 0 0 Z " fill="#DFF0F6" transform="translate(203,126)"/>
<path d="M0 0 C0.33 0.66 0.66 1.32 1 2 C1.99 1.67 2.98 1.34 4 1 C4 4.99904969 2.27413033 6.80200422 0 10 C-0.66 9.67 -1.32 9.34 -2 9 C-1.34 6.03 -0.68 3.06 0 0 Z " fill="#1F9FD6" transform="translate(195,104)"/>
<path d="M0 0 C2.672336 3.56311466 3.77263971 5.84585747 5 10 C4.01 10 3.02 10 2 10 C2 9.34 2 8.68 2 8 C1.34 8 0.68 8 0 8 C-0.33 8.66 -0.66 9.32 -1 10 C-0.67 6.7 -0.34 3.4 0 0 Z " fill="#169DD4" transform="translate(341,125)"/>
<path d="M0 0 C0.99 0.33 1.98 0.66 3 1 C3.33 1 3.66 1 4 1 C4.66 1.33 5.32 1.66 6 2 C6 2.66 6 3.32 6 4 C6.66 4.33 7.32 4.66 8 5 C2.25 6.125 2.25 6.125 0 5 C0 3.35 0 1.7 0 0 Z " fill="#1EA0D3" transform="translate(271,134)"/>
<path d="M0 0 C0.33 0.66 0.66 1.32 1 2 C-0.1875 5.0625 -0.1875 5.0625 -2 8 C-4.1875 8.875 -4.1875 8.875 -6 9 C-6 8.01 -6 7.02 -6 6 C-6.66 6 -7.32 6 -8 6 C-7.67 5.01 -7.34 4.02 -7 3 C-4.525 3.99 -4.525 3.99 -2 5 C-1.34 3.35 -0.68 1.7 0 0 Z " fill="#22A1D8" transform="translate(97,107)"/>
<path d="M0 0 C2.64 0 5.28 0 8 0 C8 1.65 8 3.3 8 5 C7.67 3.68 7.34 2.36 7 1 C3.04 2.98 3.04 2.98 -1 5 C-0.67 3.35 -0.34 1.7 0 0 Z " fill="#2FA8D7" transform="translate(323,114)"/>
<path d="M0 0 C0.33 0 0.66 0 1 0 C2.2019586 6.22833095 1.93161919 9.37129115 -1 15 C-2.20220203 11.46905698 -1.79532349 8.87101018 -1.0625 5.25 C-0.86785156 4.26515625 -0.67320312 3.2803125 -0.47265625 2.265625 C-0.31667969 1.51796875 -0.16070312 0.7703125 0 0 Z " fill="#21A0D7" transform="translate(162,123)"/>
<path d="M0 0 C0.66 0.33 1.32 0.66 2 1 C2 2.32 2 3.64 2 5 C-3.75 5.125 -3.75 5.125 -6 4 C-6 3.34 -6 2.68 -6 2 C-4.02 2 -2.04 2 0 2 C0 1.34 0 0.68 0 0 Z " fill="#159AD4" transform="translate(294,113)"/>
<path d="M0 0 C2.64 0 5.28 0 8 0 C7.67 0.99 7.34 1.98 7 3 C6.236875 2.9175 5.47375 2.835 4.6875 2.75 C1.85416667 2.70833333 1.85416667 2.70833333 0.1875 5 C-0.204375 5.66 -0.59625 6.32 -1 7 C-0.67 4.69 -0.34 2.38 0 0 Z " fill="#1299D5" transform="translate(164,113)"/>
<path d="M0 0 C6.27 0 12.54 0 19 0 C19 0.33 19 0.66 19 1 C18.02417969 1.06058594 17.04835938 1.12117188 16.04296875 1.18359375 C14.13451172 1.30927734 14.13451172 1.30927734 12.1875 1.4375 C10.92292969 1.51871094 9.65835938 1.59992188 8.35546875 1.68359375 C5.00818107 1.87184547 5.00818107 1.87184547 2 3 C1.34 2.01 0.68 1.02 0 0 Z " fill="#C7E0E9" transform="translate(58,75)"/>
<path d="M0 0 C0.33 0.99 0.66 1.98 1 3 C0.06027344 2.98259766 0.06027344 2.98259766 -0.8984375 2.96484375 C-2.12433594 2.95130859 -2.12433594 2.95130859 -3.375 2.9375 C-4.59316406 2.92009766 -4.59316406 2.92009766 -5.8359375 2.90234375 C-8.04937142 2.85533666 -8.04937142 2.85533666 -10 4 C-10 3.34 -10 2.68 -10 2 C-10.99 1.67 -11.98 1.34 -13 1 C-11.39602723 0.83147753 -9.7918131 0.66525114 -8.1875 0.5 C-7.29417969 0.4071875 -6.40085938 0.314375 -5.48046875 0.21875 C-3 0 -3 0 0 0 Z " fill="#159BD3" transform="translate(217,139)"/>
<path d="M0 0 C0.66 0 1.32 0 2 0 C2.33 2.64 2.66 5.28 3 8 C1.02 8.33 -0.96 8.66 -3 9 C-3 8.01 -3 7.02 -3 6 C-2.34 6 -1.68 6 -1 6 C-0.67 4.02 -0.34 2.04 0 0 Z " fill="#EAF4F8" transform="translate(292,130)"/>
<path d="M0 0 C0.66 0.33 1.32 0.66 2 1 C2 3.64 2 6.28 2 9 C0.68 8.01 -0.64 7.02 -2 6 C-1.34 4.02 -0.68 2.04 0 0 Z " fill="#E5EBED" transform="translate(97,109)"/>
<path d="M0 0 C2.475 0.99 2.475 0.99 5 2 C3.68 3.32 2.36 4.64 1 6 C-0.32 5.34 -1.64 4.68 -3 4 C-2.01 2.68 -1.02 1.36 0 0 Z " fill="#0C99D2" transform="translate(155,90)"/>
<path d="M0 0 C0.66 0 1.32 0 2 0 C2 1.32 2 2.64 2 4 C-0.97 4 -3.94 4 -7 4 C-7 3.34 -7 2.68 -7 2 C-4.69 2 -2.38 2 0 2 C0 1.34 0 0.68 0 0 Z " fill="#21A0D6" transform="translate(246,115)"/>
<path d="M0 0 C1.32 0.33 2.64 0.66 4 1 C4 2.32 4 3.64 4 5 C2.02 5 0.04 5 -2 5 C-1.34 3.35 -0.68 1.7 0 0 Z " fill="#0795D0" transform="translate(388,113)"/>
<path d="M0 0 C0.99 0 1.98 0 3 0 C2.67 3.3 2.34 6.6 2 10 C0 8 0 8 -0.1953125 6.0546875 C-0.13020833 4.03645833 -0.06510417 2.01822917 0 0 Z " fill="#33AAD9" transform="translate(225,113)"/>
<path d="M0 0 C1.98 0 3.96 0 6 0 C6 0.99 6 1.98 6 3 C2.37 3 -1.26 3 -5 3 C-5 2.67 -5 2.34 -5 2 C-3.35 1.67 -1.7 1.34 0 1 C0 0.67 0 0.34 0 0 Z " fill="#139AD5" transform="translate(169,89)"/>
<path d="M0 0 C2 2 2 2 2 5 C2.66 5.33 3.32 5.66 4 6 C3.01 6.33 2.02 6.66 1 7 C0.67 7.99 0.34 8.98 0 10 C-1.231394 6.30581799 -0.64432764 3.7943739 0 0 Z " fill="#4CB3DF" transform="translate(419,110)"/>
<path d="M0 0 C0.66 0 1.32 0 2 0 C1.67 2.64 1.34 5.28 1 8 C0.01 8 -0.98 8 -2 8 C-2 6.35 -2 4.7 -2 3 C-1.34 3 -0.68 3 0 3 C0 2.01 0 1.02 0 0 Z " fill="#219FD7" transform="translate(310,108)"/>
<path d="M0 0 C1.98 0 3.96 0 6 0 C4.02 0.99 4.02 0.99 2 2 C2.99 3.485 2.99 3.485 4 5 C3.01 5.33 2.02 5.66 1 6 C1 5.34 1 4.68 1 4 C0.34 4 -0.32 4 -1 4 C-0.67 2.68 -0.34 1.36 0 0 Z " fill="#1399D2" transform="translate(57,74)"/>
<path d="M0 0 C-0.99 0.33 -1.98 0.66 -3 1 C-3.33 1.66 -3.66 2.32 -4 3 C-4.33 2.67 -4.66 2.34 -5 2 C-6.34747084 1.76924918 -7.70377565 1.58846937 -9.0625 1.4375 C-10.361875 1.293125 -11.66125 1.14875 -13 1 C-13 0.67 -13 0.34 -13 0 C-11.58456585 -0.19658808 -10.16755969 -0.38187546 -8.75 -0.5625 C-7.96109375 -0.66691406 -7.1721875 -0.77132812 -6.359375 -0.87890625 C-3.99467126 -1.00027349 -2.2488963 -0.69633257 0 0 Z " fill="#189FD7" transform="translate(396,140)"/>
<path d="M0 0 C0.99 0.33 1.98 0.66 3 1 C3 1.66 3 2.32 3 3 C1.68 3.33 0.36 3.66 -1 4 C-1 4.99 -1 5.98 -1 7 C-1.66 7 -2.32 7 -3 7 C-1.125 1.125 -1.125 1.125 0 0 Z " fill="#E4F2F7" transform="translate(157,94)"/>
<path d="M0 0 C2.31 0.66 4.62 1.32 7 2 C6.01 2.33 5.02 2.66 4 3 C4 3.99 4 4.98 4 6 C3.34 6 2.68 6 2 6 C1.34 4.02 0.68 2.04 0 0 Z " fill="#CCE3EA" transform="translate(81,65)"/>
<path d="M0 0 C0.66 0.66 1.32 1.32 2 2 C0.86695008 5.39914975 -0.12518475 6.05254451 -3 8 C-2.67 6.02 -2.34 4.04 -2 2 C-1.34 2 -0.68 2 0 2 C0 1.34 0 0.68 0 0 Z " fill="#0C96D3" transform="translate(419,126)"/>
<path d="M0 0 C1.98 0 3.96 0 6 0 C4.37633534 3.24732932 1.24612161 3.70155136 -2 5 C-2.33 4.34 -2.66 3.68 -3 3 C-2.01 3 -1.02 3 0 3 C0 2.01 0 1.02 0 0 Z " fill="#DAE7E9" transform="translate(435,105)"/>
<path d="M0 0 C-0.66 1.98 -1.32 3.96 -2 6 C-3.32 4.35 -4.64 2.7 -6 1 C-4 0 -4 0 0 0 Z " fill="#189DD5" transform="translate(405,105)"/>
<path d="M0 0 C2.64 0 5.28 0 8 0 C7.67 0.66 7.34 1.32 7 2 C4.67843403 2.40729228 2.3431213 2.74438677 0 3 C0 2.01 0 1.02 0 0 Z " fill="#2FA7DB" transform="translate(280,139)"/>
<path d="M0 0 C0 1.32 0 2.64 0 4 C-1.65 3.67 -3.3 3.34 -5 3 C-5 2.34 -5 1.68 -5 1 C-3 0 -3 0 0 0 Z " fill="#0895CF" transform="translate(292,127)"/>
<path d="M0 0 C0.33 0.99 0.66 1.98 1 3 C1.66 3 2.32 3 3 3 C3 4.98 3 6.96 3 9 C2.01 8.67 1.02 8.34 0 8 C0 5.36 0 2.72 0 0 Z " fill="#0191CC" transform="translate(276,109)"/>
<path d="M0 0 C0.99 0.33 1.98 0.66 3 1 C3.33 2.65 3.66 4.3 4 6 C3.01 6 2.02 6 1 6 C0.34 4.35 -0.32 2.7 -1 1 C-0.67 0.67 -0.34 0.34 0 0 Z " fill="#E3EDEE" transform="translate(76,90)"/>
<path d="M0 0 C1.98 1.65 3.96 3.3 6 5 C5.67 5.66 5.34 6.32 5 7 C4.34 7 3.68 7 3 7 C3 6.34 3 5.68 3 5 C2.34 5 1.68 5 1 5 C0.67 3.35 0.34 1.7 0 0 Z " fill="#1199D1" transform="translate(61,79)"/>
<path d="M0 0 C2.31 0.66 4.62 1.32 7 2 C7 2.33 7 2.66 7 3 C3.7 3 0.4 3 -3 3 C-2.01 2.67 -1.02 2.34 0 2 C0 1.34 0 0.68 0 0 Z " fill="#D1E2EC" transform="translate(102,73)"/>
<path d="M0 0 C1.32 0 2.64 0 4 0 C4.33 2.31 4.66 4.62 5 7 C3.29115995 5.37660195 1.62553283 3.70680947 0 2 C0 1.34 0 0.68 0 0 Z " fill="#E4EBEE" transform="translate(132,67)"/>
</svg>
