<?xml version="1.0" encoding="UTF-8"?>
<svg version="1.1" xmlns="http://www.w3.org/2000/svg" width="123" height="86">
<path d="M0 0 C40.59 0 81.18 0 123 0 C123 28.38 123 56.76 123 86 C82.41 86 41.82 86 0 86 C0 57.62 0 29.24 0 0 Z " fill="#FCFDFE" transform="translate(0,0)"/>
<path d="M0 0 C0 4.95 0 9.9 0 15 C-11.625 15.25 -11.625 15.25 -15 13 C-15.65234375 10.9765625 -15.65234375 10.9765625 -15.9375 8.625 C-16.04964844 7.85414062 -16.16179687 7.08328125 -16.27734375 6.2890625 C-16 4 -16 4 -14.39453125 1.7265625 C-10.02045491 -1.4273392 -5.21955547 -0.22693719 0 0 Z " fill="#5C54E6" transform="translate(118,36)"/>
<path d="M0 0 C0 4.95 0 9.9 0 15 C-11.17203312 15.60717571 -11.17203312 15.60717571 -14.8125 12.9375 C-16.36411552 9.0992932 -16.1708535 6.95163055 -15 3 C-10.61071053 -1.37922229 -5.8447134 -0.20873976 0 0 Z " fill="#5950E6" transform="translate(39,36)"/>
<path d="M0 0 C1.31291016 -0.03867187 1.31291016 -0.03867187 2.65234375 -0.078125 C5.4818869 0.30709643 6.31382925 1.05694757 8.0625 3.25 C6.0625 5.25 6.0625 5.25 3.96875 5.375 C2.36458333 5.29166667 0.76041667 5.20833333 -0.84375 5.125 C-3.1608765 5.03090338 -3.1608765 5.03090338 -4.9375 7.25 C-5.27083333 10.75 -5.27083333 10.75 -4.9375 14.25 C-3.06197731 16.57645936 -3.06197731 16.57645936 0 16.375 C1.010625 16.33375 2.02125 16.2925 3.0625 16.25 C4.0525 16.25 5.0425 16.25 6.0625 16.25 C6.7225 17.24 7.3825 18.23 8.0625 19.25 C3.8366215 22.06725233 0.02625312 22.04958384 -4.9375 21.25 C-7.76174288 19.05977082 -9.35258603 17.41982793 -10.9375 14.25 C-11.5186138 7.16041162 -11.5186138 7.16041162 -9.0625 3.3125 C-5.97754611 0.31828005 -4.2032904 0.07406679 0 0 Z " fill="#564EE6" transform="translate(81.9375,29.75)"/>
<path d="M0 0 C1.31291016 -0.03867187 1.31291016 -0.03867187 2.65234375 -0.078125 C5.4818869 0.30709643 6.31382925 1.05694757 8.0625 3.25 C6.0625 5.25 6.0625 5.25 3.96875 5.375 C2.36458333 5.29166667 0.76041667 5.20833333 -0.84375 5.125 C-3.1608765 5.03090338 -3.1608765 5.03090338 -4.9375 7.25 C-5.28240322 11.30261287 -5.23913882 12.79754176 -2.9375 16.25 C-0.79239194 16.50059733 -0.79239194 16.50059733 1.5625 16.25 C3.96875 16.0625 3.96875 16.0625 6.0625 16.25 C6.7225 17.24 7.3825 18.23 8.0625 19.25 C4.01298409 21.94967727 0.81344185 21.78437659 -3.9375 21.25 C-7.20535533 19.9289521 -8.48205456 19.03076361 -10.25 16 C-11.11495484 12.54018062 -11.31852383 9.80622239 -10.9375 6.25 C-7.74777696 1.35909134 -5.71157317 0.10064446 0 0 Z " fill="#564DE6" transform="translate(14.9375,29.75)"/>
<path d="M0 0 C1.98 0 3.96 0 6 0 C4.35 3.63 2.7 7.26 1 11 C1.99 11.33 2.98 11.66 4 12 C4 10.68 4 9.36 4 8 C5.65 8 7.3 8 9 8 C9 9.32 9 10.64 9 12 C9.66 12 10.32 12 11 12 C11 13.32 11 14.64 11 16 C10.34 16 9.68 16 9 16 C9 17.65 9 19.3 9 21 C7.35 21 5.7 21 4 21 C4 19.35 4 17.7 4 16 C0.7 16 -2.6 16 -6 16 C-5.52412884 9.97229862 -2.80277043 5.23321711 0 0 Z " fill="#5950E6" transform="translate(59,30)"/>
<path d="M0 0 C3.63 0 7.26 0 11 0 C11 0.99 11 1.98 11 3 C9.35 3.66 7.7 4.32 6 5 C5.67 8.3 5.34 11.6 5 15 C3.35 15 1.7 15 0 15 C0 10.05 0 5.1 0 0 Z " fill="#6057E7" transform="translate(91,36)"/>
<path d="M0 0 C3.63 0 7.26 0 11 0 C11 0.99 11 1.98 11 3 C9.35 3.66 7.7 4.32 6 5 C5.67 8.3 5.34 11.6 5 15 C3.35 15 1.7 15 0 15 C0 10.05 0 5.1 0 0 Z " fill="#6057E7" transform="translate(41,36)"/>
<path d="M0 0 C2.125 0.375 2.125 0.375 4 1 C4 2.65 4 4.3 4 6 C2.35 6.33 0.7 6.66 -1 7 C-1.625 4.625 -1.625 4.625 -2 2 C-1.34 1.34 -0.68 0.68 0 0 Z " fill="#F2F2FD" transform="translate(30,40)"/>
<path d="M0 0 C2.125 0.9375 2.125 0.9375 4 2 C3.67 3.65 3.34 5.3 3 7 C1.35 6.67 -0.3 6.34 -2 6 C-2 4.35 -2 2.7 -2 1 C-1.34 0.67 -0.68 0.34 0 0 Z " fill="#F5F5FD" transform="translate(109,40)"/>
<path d="M0 0 C2.31 0 4.62 0 7 0 C7 0.33 7 0.66 7 1 C5.35 1 3.7 1 2 1 C2 2.32 2 3.64 2 5 C0.68 4.67 -0.64 4.34 -2 4 C-1.34 2.68 -0.68 1.36 0 0 Z " fill="#F5F6FD" transform="translate(61,37)"/>
</svg>
