<?xml version="1.0" encoding="UTF-8"?>
<svg version="1.1" xmlns="http://www.w3.org/2000/svg" width="192" height="192">
<path d="M0 0 C63.36 0 126.72 0 192 0 C192 63.36 192 126.72 192 192 C128.64 192 65.28 192 0 192 C0 128.64 0 65.28 0 0 Z " fill="#09387A" transform="translate(0,0)"/>
<path d="M0 0 C2.13633994 1.85980863 3.38878865 3.60759527 5 6 C5 6.66 5 7.32 5 8 C5.56396484 7.93941406 6.12792969 7.87882812 6.70898438 7.81640625 C9.30555006 7.53994962 11.90274897 7.26993901 14.5 7 C15.386875 6.90460937 16.27375 6.80921875 17.1875 6.7109375 C22.48440387 6.16566798 27.67684711 5.69072184 33 6 C36.65746672 9.37612312 37.89548057 12.47481067 38.09765625 17.359375 C38.08605469 18.14828125 38.07445313 18.9371875 38.0625 19.75 C38.05347656 20.54921875 38.04445313 21.3484375 38.03515625 22.171875 C38.02355469 22.77515625 38.01195313 23.3784375 38 24 C39.16144531 23.94070312 40.32289062 23.88140625 41.51953125 23.8203125 C46.09881786 23.83037908 49.55884172 24.98493241 53.6875 26.875 C54.37521484 27.18453613 55.06292969 27.49407227 55.77148438 27.81298828 C73.85844848 36.3596216 85.42179378 50.94539612 93.01953125 69.140625 C97.92674251 83.45169529 96.75422638 103.68074893 90.48828125 117.28125 C87.01214584 124.09291309 83.03136782 130.24338998 78 136 C77.46890625 136.61359375 76.9378125 137.2271875 76.390625 137.859375 C71.63343508 142.97901748 65.97052217 146.44234372 60 150 C59.23945313 150.50660156 58.47890625 151.01320312 57.6953125 151.53515625 C54.09946253 153.48942254 50.42272965 154.56623617 46.5 155.6875 C45.38044922 156.02491211 45.38044922 156.02491211 44.23828125 156.36914062 C36.9168745 158.50077144 36.9168745 158.50077144 33 158 C31.47924805 156.25878906 31.47924805 156.25878906 30.07421875 154.015625 C27.71290041 151.11273162 26.60390326 150.11535337 22.88134766 149.40429688 C19.16579816 149.35727107 15.51985652 149.49942598 11.8125 149.75 C9.29909539 149.8877208 6.78467571 150.0082904 4.26953125 150.109375 C2.60821167 150.21717285 2.60821167 150.21717285 0.91333008 150.32714844 C-2 150 -2 150 -4.35375977 148.18164062 C-6.51164441 145.32195544 -6.59563868 143.30031034 -6.75 139.75 C-6.80671875 138.67234375 -6.8634375 137.5946875 -6.921875 136.484375 C-6.94765625 135.66453125 -6.9734375 134.8446875 -7 134 C-8.01578125 133.79246094 -9.0315625 133.58492187 -10.078125 133.37109375 C-28.97213389 129.25618332 -42.98662077 118.85214154 -54 103 C-54.44730469 102.41476563 -54.89460938 101.82953125 -55.35546875 101.2265625 C-65.45424742 86.99505286 -65.48645915 69.07798197 -63.59375 52.42578125 C-60.61623462 38.06710512 -52.505716 25.89904789 -42 16 C-41.20851563 15.25105469 -40.41703125 14.50210938 -39.6015625 13.73046875 C-29.86179341 5.26884212 -13.16904557 -4.13146528 0 0 Z " fill="#0D397B" transform="translate(79,19)"/>
<path d="M0 0 C2.13633994 1.85980863 3.38878865 3.60759527 5 6 C5 6.66 5 7.32 5 8 C5.56396484 7.93941406 6.12792969 7.87882812 6.70898438 7.81640625 C9.30555006 7.53994962 11.90274897 7.26993901 14.5 7 C15.386875 6.90460937 16.27375 6.80921875 17.1875 6.7109375 C22.48440387 6.16566798 27.67684711 5.69072184 33 6 C36.65746672 9.37612312 37.89548057 12.47481067 38.09765625 17.359375 C38.08605469 18.14828125 38.07445313 18.9371875 38.0625 19.75 C38.05347656 20.54921875 38.04445313 21.3484375 38.03515625 22.171875 C38.02355469 22.77515625 38.01195313 23.3784375 38 24 C39.16144531 23.94070312 40.32289062 23.88140625 41.51953125 23.8203125 C46.09881786 23.83037908 49.55884172 24.98493241 53.6875 26.875 C54.37521484 27.18453613 55.06292969 27.49407227 55.77148438 27.81298828 C73.85844848 36.3596216 85.42179378 50.94539612 93.01953125 69.140625 C97.92674251 83.45169529 96.75422638 103.68074893 90.48828125 117.28125 C87.01214584 124.09291309 83.03136782 130.24338998 78 136 C77.46890625 136.61359375 76.9378125 137.2271875 76.390625 137.859375 C71.63343508 142.97901748 65.97052217 146.44234372 60 150 C59.23945313 150.50660156 58.47890625 151.01320312 57.6953125 151.53515625 C54.09946253 153.48942254 50.42272965 154.56623617 46.5 155.6875 C45.38044922 156.02491211 45.38044922 156.02491211 44.23828125 156.36914062 C36.9168745 158.50077144 36.9168745 158.50077144 33 158 C31.47924805 156.25878906 31.47924805 156.25878906 30.07421875 154.015625 C27.71290041 151.11273162 26.60390326 150.11535337 22.88134766 149.40429688 C19.16579816 149.35727107 15.51985652 149.49942598 11.8125 149.75 C9.29909539 149.8877208 6.78467571 150.0082904 4.26953125 150.109375 C2.60821167 150.21717285 2.60821167 150.21717285 0.91333008 150.32714844 C-2 150 -2 150 -4.35375977 148.18164062 C-6.51164441 145.32195544 -6.59563868 143.30031034 -6.75 139.75 C-6.80671875 138.67234375 -6.8634375 137.5946875 -6.921875 136.484375 C-6.94765625 135.66453125 -6.9734375 134.8446875 -7 134 C-8.01578125 133.79246094 -9.0315625 133.58492187 -10.078125 133.37109375 C-28.97213389 129.25618332 -42.98662077 118.85214154 -54 103 C-54.44730469 102.41476563 -54.89460938 101.82953125 -55.35546875 101.2265625 C-65.45424742 86.99505286 -65.48645915 69.07798197 -63.59375 52.42578125 C-60.61623462 38.06710512 -52.505716 25.89904789 -42 16 C-41.20851563 15.25105469 -40.41703125 14.50210938 -39.6015625 13.73046875 C-29.86179341 5.26884212 -13.16904557 -4.13146528 0 0 Z M-41.125 24.75 C-52.95683341 37.07580657 -57.77833169 51.81896593 -57.52368164 68.62426758 C-56.79251798 86.10971731 -49.75218576 99.28517786 -38 112 C-35.48039232 114.28791962 -32.87795253 116.18940462 -30 118 C-28.98873047 118.65742188 -28.98873047 118.65742188 -27.95703125 119.328125 C-19.0993166 124.68470289 -10.31697548 127 0 127 C0.495 134.92 0.495 134.92 1 143 C5.67508381 143.07971557 10.1821679 143.03883537 14.82421875 142.46484375 C27.66697618 140.99210394 27.66697618 140.99210394 31.5625 143.9375 C33.07316792 146.26160449 34.15278672 148.3659369 35 151 C38.01141362 150.36857456 41.00455864 149.70087078 44 149 C45.18916016 148.74283203 45.18916016 148.74283203 46.40234375 148.48046875 C60.08621117 145.04286834 72.16590333 134.64897638 79.4375 122.75 C80.31899984 121.18171968 81.17284892 119.59761267 82 118 C82.50273437 117.06929688 83.00546875 116.13859375 83.5234375 115.1796875 C89.38079809 102.56621788 90.92091178 88.36674471 87 75 C86.5978125 73.56140625 86.5978125 73.56140625 86.1875 72.09375 C81.8390657 57.74391682 71.78825872 44.96103169 59 37 C50.23934919 32.4019857 41.83193722 29.94726305 32 29 C31.93941406 28.09636719 31.87882812 27.19273438 31.81640625 26.26171875 C31.73261719 25.08222656 31.64882812 23.90273438 31.5625 22.6875 C31.48128906 21.51574219 31.40007812 20.34398437 31.31640625 19.13671875 C31.1132629 15.97409042 31.1132629 15.97409042 30 13 C29.18321777 13.0721875 28.36643555 13.144375 27.52490234 13.21875 C23.81034727 13.52253869 20.09431393 13.76181733 16.375 14 C15.08980469 14.11472656 13.80460937 14.22945312 12.48046875 14.34765625 C3.05659161 14.88476842 3.05659161 14.88476842 -0.13183594 12.21484375 C-1.7109375 10 -1.7109375 10 -2.89990234 7.75 C-3.26293457 7.1725 -3.6259668 6.595 -4 6 C-18.46549626 6 -31.06677574 15.29140065 -41.125 24.75 Z " fill="#F2F4F7" transform="translate(79,19)"/>
<path d="M0 0 C2.6856652 2.07922467 4.18460617 4.62024585 5.9375 7.5 C6.67613281 7.4278125 7.41476563 7.355625 8.17578125 7.28125 C15.12063352 6.64588867 21.96531245 6.37647699 28.9375 6.5 C29.27558686 8.56172613 29.60777361 10.6244203 29.9375 12.6875 C30.123125 13.83605469 30.30875 14.98460937 30.5 16.16796875 C30.87342044 19.01196549 30.97159878 21.6420956 30.9375 24.5 C30.3077124 24.57516846 29.6779248 24.65033691 29.02905273 24.7277832 C26.14293198 25.07850772 23.25907781 25.44536913 20.375 25.8125 C19.38435547 25.93044922 18.39371094 26.04839844 17.37304688 26.16992188 C9.46316938 27.19478972 2.84351891 28.75803717 -3.0625 34.5 C-6.98194141 39.90612608 -6.9718923 46.0837321 -6.0625 52.5 C-3.85567123 57.91198483 -0.02462016 62.9366588 5.1875 65.6875 C8.77022222 66.74603156 12.22059538 67.1220097 15.9375 67.5 C15.4425 63.045 15.4425 63.045 14.9375 58.5 C21.2075 58.17 27.4775 57.84 33.9375 57.5 C34.443978 60.68659077 34.94285868 63.8740688 35.4375 67.0625 C35.58058594 67.95775391 35.72367187 68.85300781 35.87109375 69.77539062 C36.63642388 74.75003648 37.10318252 79.46739357 36.9375 84.5 C36.38288086 84.55534912 35.82826172 84.61069824 35.25683594 84.66772461 C32.7334083 84.92128107 30.21046117 85.17934505 27.6875 85.4375 C26.81480469 85.52451172 25.94210938 85.61152344 25.04296875 85.70117188 C24.19863281 85.78818359 23.35429688 85.87519531 22.484375 85.96484375 C21.70932617 86.043396 20.93427734 86.12194824 20.13574219 86.20288086 C17.98952659 86.49296797 15.9986718 86.83163308 13.9375 87.5 C12.59518558 89.33983424 12.59518558 89.33983424 11.6875 91.5625 C11.35234375 92.29597656 11.0171875 93.02945313 10.671875 93.78515625 C10.42953125 94.35105469 10.1871875 94.91695313 9.9375 95.5 C7.60455225 95.54241723 5.27047433 95.54092937 2.9375 95.5 C1.9375 94.5 1.9375 94.5 1.83984375 92.21484375 C1.85144531 91.29832031 1.86304688 90.38179688 1.875 89.4375 C1.88402344 88.51839844 1.89304688 87.59929687 1.90234375 86.65234375 C1.91394531 85.94207031 1.92554688 85.23179688 1.9375 84.5 C-2.17927756 82.87243678 -4.80980036 82.08243345 -9.0625 83.5 C-9.908125 84.03625 -10.75375 84.5725 -11.625 85.125 C-14.0625 86.5 -14.0625 86.5 -16.25 86.3125 C-18.0625 85.5 -18.0625 85.5 -20.0625 83.5 C-19.70842783 80.38416489 -19.04404508 77.4231045 -18.3125 74.375 C-17.80480249 71.52116496 -17.80480249 71.52116496 -19.19140625 69.3359375 C-20.95456038 67.24421772 -20.95456038 67.24421772 -23.76171875 67.109375 C-24.74785156 67.15578125 -25.73398437 67.2021875 -26.75 67.25 C-27.74386719 67.28609375 -28.73773438 67.3221875 -29.76171875 67.359375 C-30.52097656 67.40578125 -31.28023437 67.4521875 -32.0625 67.5 C-33.0525 64.035 -33.0525 64.035 -34.0625 60.5 C-28.3125 55.5 -28.3125 55.5 -26.0625 55.5 C-26.0625 52.53 -26.0625 49.56 -26.0625 46.5 C-26.784375 46.396875 -27.50625 46.29375 -28.25 46.1875 C-31.30741993 45.44013068 -33.44579635 44.21954811 -36.0625 42.5 C-35.1875 35.625 -35.1875 35.625 -34.0625 34.5 C-32.37641034 34.42794489 -30.68749341 34.41613932 -29 34.4375 C-28.08089844 34.44652344 -27.16179688 34.45554688 -26.21484375 34.46484375 C-25.50457031 34.47644531 -24.79429688 34.48804688 -24.0625 34.5 C-23.918125 33.7575 -23.77375 33.015 -23.625 32.25 C-23.0625 29.5 -23.0625 29.5 -22.1875 27.5625 C-22.02521756 24.88483971 -22.81448413 24.27736697 -24.5 22.25 C-25.345625 21.3425 -26.19125 20.435 -27.0625 19.5 C-26.09743328 17.08733319 -25.33896516 15.70973219 -23.25 14.125 C-20.25828524 13.27022435 -18.86582456 14.26927214 -16.0625 15.5 C-13.06546641 15.8654919 -11.58563613 15.78499921 -8.92578125 14.3359375 C-6.80115518 12.61243897 -6.80115518 12.61243897 -6.671875 9.80078125 C-6.71828125 8.81464844 -6.7646875 7.82851563 -6.8125 6.8125 C-6.86664063 5.32169922 -6.86664063 5.32169922 -6.921875 3.80078125 C-6.96828125 3.04152344 -7.0146875 2.28226563 -7.0625 1.5 C-2.3203125 -0.5625 -2.3203125 -0.5625 0 0 Z " fill="#F9FAFB" transform="translate(70.0625,38.5)"/>
<path d="M0 0 C2.64 0 5.28 0 8 0 C9.17571451 3.67410785 9.07366746 7.16929183 9 11 C14.22604211 13.06750253 14.22604211 13.06750253 19.53515625 12.01953125 C21.75913192 10.7612756 23.89707245 9.45063058 26 8 C27.9765625 9.34765625 27.9765625 9.34765625 30 11 C30.44441957 13.88872718 30.27777927 15.46078141 28.9375 18.0625 C27.80601323 19.95556839 27.80601323 19.95556839 28.25 22.0625 C29.02485661 24.27229292 29.02485661 24.27229292 31 27 C33.88595946 27.58481121 33.88595946 27.58481121 37.125 27.6875 C38.22070312 27.75324219 39.31640625 27.81898437 40.4453125 27.88671875 C41.28835937 27.92410156 42.13140625 27.96148437 43 28 C43.875 31.1875 43.875 31.1875 44 35 C42.51671964 36.22531856 41.02290317 37.44519157 39.4375 38.53515625 C36.63116842 41.39486914 37.11410025 45.17764174 37 49 C39.97 49.99 42.94 50.98 46 52 C46.04241723 54.33294775 46.04092937 56.66702567 46 59 C44.26043342 60.73956658 41.8063378 60.37190386 39.4375 60.5625 C38.42558594 60.64628906 37.41367188 60.73007813 36.37109375 60.81640625 C35.58863281 60.87699219 34.80617187 60.93757813 34 61 C32.66831052 67.16832343 32.66831052 67.16832343 35.0625 72.75 C35.701875 73.8225 36.34125 74.895 37 76 C36.3125 78.3125 36.3125 78.3125 35 80 C34.67 80.66 34.34 81.32 34 82 C30.26512223 81.5020163 28.18762365 81.12508244 25 79 C21.88246616 79.40226243 19.89529395 80.55235302 17 82 C17 85.96 17 89.92 17 94 C13.875 94.9375 13.875 94.9375 10 95 C8.5859375 93.47265625 8.5859375 93.47265625 7.25 91.5 C5.85086575 89.48305519 5.85086575 89.48305519 4 88 C1.19379659 87.71206708 -1.18502968 88.07240861 -3.96484375 88.53125 C-8.97192289 89.30454408 -13.94218967 89.05950365 -19 89 C-19.33 82.73 -19.66 76.46 -20 70 C-18.5046875 69.90203125 -17.009375 69.8040625 -15.46875 69.703125 C-13.4791001 69.55296274 -11.48952014 69.40187177 -9.5 69.25 C-8.51773438 69.188125 -7.53546875 69.12625 -6.5234375 69.0625 C0.98473884 68.46184589 7.06388169 67.09065085 12.375 61.5 C16.71984888 54.81561711 16.7455326 48.91553127 16 41 C13.57920231 35.79976793 9.89756528 32.39792361 4.72583008 29.90283203 C1.60361691 28.86871252 -0.89071315 28.7723223 -4.17578125 28.8046875 C-5.33271484 28.81113281 -6.48964844 28.81757812 -7.68164062 28.82421875 C-9.47891602 28.84935547 -9.47891602 28.84935547 -11.3125 28.875 C-13.1387793 28.88853516 -13.1387793 28.88853516 -15.00195312 28.90234375 C-18.00150274 28.92586963 -21.00065044 28.95874347 -24 29 C-25.585869 25.828262 -25.37866445 22.36486178 -25.5625 18.875 C-25.60568359 18.12089844 -25.64886719 17.36679688 -25.69335938 16.58984375 C-25.7994832 14.72678112 -25.90025001 12.86341476 -26 11 C-25.35450195 10.95101562 -24.70900391 10.90203125 -24.04394531 10.8515625 C-21.10787325 10.60662589 -18.18051643 10.30404108 -15.25 10 C-14.23421875 9.92394531 -13.2184375 9.84789063 -12.171875 9.76953125 C-6.6315837 9.3034402 -6.6315837 9.3034402 -2.40429688 6.08984375 C-1.39831945 4.07788891 -0.6167655 2.16056348 0 0 Z " fill="#F8F9FB" transform="translate(109,61)"/>
<path d="M0 0 C0.66 0 1.32 0 2 0 C3.85776765 3.13498292 4.20140476 5.37471432 4 9 C3.01 9.495 3.01 9.495 2 10 C1.34 6.7 0.68 3.4 0 0 Z " fill="#274D87" transform="translate(122,98)"/>
</svg>
