<?xml version="1.0" standalone="no"?>
<!DOCTYPE svg PUBLIC "-//W3C//DTD SVG 20010904//EN"
 "http://www.w3.org/TR/2001/REC-SVG-20010904/DTD/svg10.dtd">
<svg version="1.0" xmlns="http://www.w3.org/2000/svg"
 width="640.000000pt" height="360.000000pt" viewBox="0 0 640.000000 360.000000"
 preserveAspectRatio="xMidYMid meet">

<g transform="translate(0.000000,360.000000) scale(0.100000,-0.100000)"
fill="#000000" stroke="none">
<path d="M3290 3220 c0 -5 5 -10 11 -10 5 0 7 5 4 10 -3 6 -8 10 -11 10 -2 0
-4 -4 -4 -10z"/>
<path d="M2561 2324 c0 -11 3 -14 6 -6 3 7 2 16 -1 19 -3 4 -6 -2 -5 -13z"/>
<path d="M2595 2190 c3 -5 8 -10 11 -10 2 0 4 5 4 10 0 6 -5 10 -11 10 -5 0
-7 -4 -4 -10z"/>
<path d="M3155 2190 c-3 -5 -1 -10 4 -10 6 0 11 5 11 10 0 6 -2 10 -4 10 -3 0
-8 -4 -11 -10z"/>
<path d="M4180 2110 c-9 -6 -10 -10 -3 -10 6 0 15 5 18 10 8 12 4 12 -15 0z"/>
<path d="M2481 1984 c0 -11 3 -14 6 -6 3 7 2 16 -1 19 -3 4 -6 -2 -5 -13z"/>
<path d="M3666 1674 c-5 -14 -4 -15 9 -4 17 14 19 20 6 20 -5 0 -12 -7 -15
-16z"/>
<path d="M3725 930 c-8 -14 3 -30 21 -30 8 0 14 9 14 20 0 21 -24 28 -35 10z"/>
<path d="M2313 918 c-46 -10 -89 -47 -109 -95 -8 -18 -14 -67 -14 -113 0 -128
43 -195 138 -215 45 -9 127 12 163 42 28 24 29 29 29 104 l0 79 -70 0 -70 0 0
-30 c0 -28 2 -30 40 -30 39 0 40 -1 40 -34 0 -18 -7 -39 -15 -46 -22 -18 -108
-25 -133 -11 -74 40 -76 242 -3 281 39 21 91 12 121 -20 32 -34 39 -36 65 -17
17 13 17 15 0 44 -32 55 -101 78 -182 61z"/>
<path d="M3056 920 c-55 -10 -86 -48 -86 -104 0 -64 25 -89 120 -121 110 -37
135 -75 86 -132 -21 -25 -31 -28 -81 -28 -52 0 -60 3 -84 33 -31 37 -51 41
-51 11 0 -60 111 -105 194 -77 71 24 103 105 67 171 -14 26 -77 59 -137 71
-64 14 -97 82 -59 120 37 37 122 29 153 -15 16 -23 42 -25 42 -3 0 55 -78 90
-164 74z"/>
<path d="M2598 823 c-4 -161 -4 -266 1 -295 l4 -28 84 0 c118 0 171 33 198
124 28 94 15 183 -36 241 -37 41 -80 55 -176 55 l-73 0 -2 -97z m168 22 c42
-17 64 -63 64 -135 0 -99 -48 -155 -128 -148 l-37 3 -3 134 c-1 74 0 141 2
148 7 17 58 16 102 -2z"/>
<path d="M4135 860 c-4 -17 -15 -35 -26 -40 -25 -14 -24 -26 1 -33 19 -5 20
-14 20 -136 0 -125 1 -131 23 -145 25 -17 67 -11 67 10 0 8 -9 14 -20 14 -29
0 -40 37 -40 140 0 102 5 120 31 120 27 0 24 28 -3 32 -18 2 -24 11 -26 36 -4
40 -18 42 -27 2z"/>
<path d="M3375 823 c-53 -13 -85 -73 -85 -163 0 -106 40 -165 112 -165 33 0
45 6 69 33 16 18 29 39 29 47 0 26 -34 16 -52 -15 -25 -43 -71 -42 -99 3 -27
43 -24 174 5 206 29 32 73 28 94 -9 19 -33 49 -36 44 -5 -7 44 -68 79 -117 68z"/>
<path d="M3621 801 l-31 -33 0 26 c0 16 -6 26 -15 26 -13 0 -15 -24 -15 -160
0 -128 3 -160 14 -160 10 0 14 27 18 115 6 122 21 165 58 165 27 0 35 19 17
38 -15 14 -19 12 -46 -17z"/>
<path d="M3940 823 c-8 -3 -25 -14 -36 -25 -21 -19 -21 -19 -27 1 -3 12 -12
21 -21 21 -14 0 -16 -26 -16 -226 0 -209 1 -225 18 -222 14 3 17 16 20 81 2
42 7 77 12 77 6 0 10 -4 10 -9 0 -5 15 -14 34 -21 68 -22 110 20 122 122 8 65
-10 160 -34 181 -20 17 -61 27 -82 20z m63 -73 c24 -46 19 -170 -8 -200 -35
-39 -97 -19 -111 36 -12 49 0 161 21 184 30 33 75 24 98 -20z"/>
<path d="M3724 807 c-2 -7 -3 -78 -2 -157 3 -129 5 -145 21 -148 16 -3 17 10
17 157 0 138 -2 161 -15 161 -9 0 -18 -6 -21 -13z"/>
</g>
</svg>
