<?xml version="1.0" encoding="UTF-8"?>
<svg version="1.1" xmlns="http://www.w3.org/2000/svg" width="256" height="256">
<path d="M0 0 C63.36 0 126.72 0 192 0 C192 5.28 192 10.56 192 16 C197.28 16 202.56 16 208 16 C208 84.64 208 153.28 208 224 C202.72 224 197.44 224 192 224 C192 229.28 192 234.56 192 240 C128.64 240 65.28 240 0 240 C0 234.72 0 229.44 0 224 C-5.28 224 -10.56 224 -16 224 C-16 155.36 -16 86.72 -16 16 C-10.72 16 -5.44 16 0 16 C0 10.72 0 5.44 0 0 Z " fill="#FFFFFF" transform="translate(32,0)"/>
<path d="M0 0 C63.36 0 126.72 0 192 0 C192 5.28 192 10.56 192 16 C197.28 16 202.56 16 208 16 C208 84.64 208 153.28 208 224 C202.72 224 197.44 224 192 224 C192 229.28 192 234.56 192 240 C128.64 240 65.28 240 0 240 C0 234.72 0 229.44 0 224 C-5.28 224 -10.56 224 -16 224 C-16 155.36 -16 86.72 -16 16 C-10.72 16 -5.44 16 0 16 C0 10.72 0 5.44 0 0 Z M16 16 C16 21.28 16 26.56 16 32 C10.72 32 5.44 32 0 32 C0 79.52 0 127.04 0 176 C5.28 176 10.56 176 16 176 C16 181.28 16 186.56 16 192 C68.8 192 121.6 192 176 192 C176 186.72 176 181.44 176 176 C181.28 176 186.56 176 192 176 C192 128.48 192 80.96 192 32 C186.72 32 181.44 32 176 32 C176 26.72 176 21.44 176 16 C123.2 16 70.4 16 16 16 Z " fill="#464A74" transform="translate(32,0)"/>
<path d="M0 0 C5.28 0 10.56 0 16 0 C16 5.28 16 10.56 16 16 C68.8 16 121.6 16 176 16 C176 10.72 176 5.44 176 0 C181.28 0 186.56 0 192 0 C192 10.56 192 21.12 192 32 C197.28 32 202.56 32 208 32 C208 37.28 208 42.56 208 48 C202.72 48 197.44 48 192 48 C192 53.28 192 58.56 192 64 C186.72 64 181.44 64 176 64 C176 58.72 176 53.44 176 48 C123.2 48 70.4 48 16 48 C16 42.72 16 37.44 16 32 C10.72 32 5.44 32 0 32 C0 21.44 0 10.88 0 0 Z " fill="#7176A9" transform="translate(32,176)"/>
<path d="M0 0 C5.28 0 10.56 0 16 0 C16 5.28 16 10.56 16 16 C37.12 16 58.24 16 80 16 C80 10.72 80 5.44 80 0 C85.28 0 90.56 0 96 0 C96 10.56 96 21.12 96 32 C90.72 32 85.44 32 80 32 C80 37.28 80 42.56 80 48 C58.88 48 37.76 48 16 48 C16 42.72 16 37.44 16 32 C10.72 32 5.44 32 0 32 C0 21.44 0 10.88 0 0 Z " fill="#464A74" transform="translate(80,128)"/>
<path d="M0 0 C5.28 0 10.56 0 16 0 C16 58.08 16 116.16 16 176 C10.72 176 5.44 176 0 176 C0 117.92 0 59.84 0 0 Z " fill="#464A74" transform="translate(224,32)"/>
<path d="M0 0 C52.8 0 105.6 0 160 0 C160 5.28 160 10.56 160 16 C107.2 16 54.4 16 0 16 C0 10.72 0 5.44 0 0 Z " fill="#464A74" transform="translate(48,224)"/>
<path d="M0 0 C10.56 0 21.12 0 32 0 C32 5.28 32 10.56 32 16 C21.44 16 10.88 16 0 16 C0 10.72 0 5.44 0 0 Z " fill="#464A74" transform="translate(160,64)"/>
<path d="M0 0 C10.56 0 21.12 0 32 0 C32 5.28 32 10.56 32 16 C21.44 16 10.88 16 0 16 C0 10.72 0 5.44 0 0 Z " fill="#464A74" transform="translate(64,64)"/>
<path d="M0 0 C10.56 0 21.12 0 32 0 C32 5.28 32 10.56 32 16 C21.44 16 10.88 16 0 16 C0 10.72 0 5.44 0 0 Z " fill="#464A74" transform="translate(16,16)"/>
<path d="M0 0 C5.28 0 10.56 0 16 0 C16 5.28 16 10.56 16 16 C10.72 16 5.44 16 0 16 C0 10.72 0 5.44 0 0 Z " fill="#7D929E" transform="translate(208,224)"/>
<path d="M0 0 C5.28 0 10.56 0 16 0 C16 5.28 16 10.56 16 16 C10.72 16 5.44 16 0 16 C0 10.72 0 5.44 0 0 Z " fill="#7D929E" transform="translate(32,224)"/>
<path d="M0 0 C5.28 0 10.56 0 16 0 C16 5.28 16 10.56 16 16 C10.72 16 5.44 16 0 16 C0 10.72 0 5.44 0 0 Z " fill="#7D929E" transform="translate(224,208)"/>
<path d="M0 0 C5.28 0 10.56 0 16 0 C16 5.28 16 10.56 16 16 C10.72 16 5.44 16 0 16 C0 10.72 0 5.44 0 0 Z " fill="#464A74" transform="translate(208,208)"/>
<path d="M0 0 C5.28 0 10.56 0 16 0 C16 5.28 16 10.56 16 16 C10.72 16 5.44 16 0 16 C0 10.72 0 5.44 0 0 Z " fill="#7D929E" transform="translate(16,208)"/>
<path d="M0 0 C5.28 0 10.56 0 16 0 C16 5.28 16 10.56 16 16 C10.72 16 5.44 16 0 16 C0 10.72 0 5.44 0 0 Z " fill="#464A74" transform="translate(192,80)"/>
<path d="M0 0 C5.28 0 10.56 0 16 0 C16 5.28 16 10.56 16 16 C10.72 16 5.44 16 0 16 C0 10.72 0 5.44 0 0 Z " fill="#464A74" transform="translate(144,80)"/>
<path d="M0 0 C5.28 0 10.56 0 16 0 C16 5.28 16 10.56 16 16 C10.72 16 5.44 16 0 16 C0 10.72 0 5.44 0 0 Z " fill="#464A74" transform="translate(96,80)"/>
<path d="M0 0 C5.28 0 10.56 0 16 0 C16 5.28 16 10.56 16 16 C10.72 16 5.44 16 0 16 C0 10.72 0 5.44 0 0 Z " fill="#464A74" transform="translate(48,80)"/>
<path d="M0 0 C5.28 0 10.56 0 16 0 C16 5.28 16 10.56 16 16 C10.72 16 5.44 16 0 16 C0 10.72 0 5.44 0 0 Z " fill="#7D929E" transform="translate(224,16)"/>
<path d="M0 0 C5.28 0 10.56 0 16 0 C16 5.28 16 10.56 16 16 C10.72 16 5.44 16 0 16 C0 10.72 0 5.44 0 0 Z " fill="#464A74" transform="translate(208,16)"/>
<path d="M0 0 C5.28 0 10.56 0 16 0 C16 5.28 16 10.56 16 16 C10.72 16 5.44 16 0 16 C0 10.72 0 5.44 0 0 Z " fill="#7D929E" transform="translate(16,16)"/>
<path d="M0 0 C5.28 0 10.56 0 16 0 C16 5.28 16 10.56 16 16 C10.72 16 5.44 16 0 16 C0 10.72 0 5.44 0 0 Z " fill="#7D929E" transform="translate(208,0)"/>
<path d="M0 0 C5.28 0 10.56 0 16 0 C16 5.28 16 10.56 16 16 C10.72 16 5.44 16 0 16 C0 10.72 0 5.44 0 0 Z " fill="#7D929E" transform="translate(32,0)"/>
</svg>
