<?xml version="1.0" standalone="no"?>
<!DOCTYPE svg PUBLIC "-//W3C//DTD SVG 20010904//EN"
 "http://www.w3.org/TR/2001/REC-SVG-20010904/DTD/svg10.dtd">
<svg version="1.0" xmlns="http://www.w3.org/2000/svg"
 width="512.000000pt" height="512.000000pt" viewBox="0 0 512.000000 512.000000"
 preserveAspectRatio="xMidYMid meet">

<g transform="translate(0.000000,512.000000) scale(0.100000,-0.100000)"
fill="#000000" stroke="none">
<path d="M476 4785 c-74 -26 -125 -81 -146 -154 -15 -55 -14 -4088 2 -4149 16
-64 86 -134 150 -150 67 -17 4089 -17 4156 0 69 17 136 88 151 159 9 40 11
574 9 2099 -3 1974 -4 2046 -22 2080 -26 49 -55 79 -101 103 l-40 22 -2060 2
c-1751 2 -2066 0 -2099 -12z m927 -804 c92 -24 197 -65 257 -101 59 -36 94
-46 217 -64 248 -37 498 -183 761 -444 259 -259 434 -524 531 -805 80 -233
113 -269 366 -402 61 -31 139 -78 175 -103 74 -53 297 -273 320 -316 14 -26
13 -29 -9 -47 -29 -24 -74 -36 -186 -48 -164 -19 -175 -22 -175 -36 0 -8 30
-35 68 -61 246 -172 387 -297 417 -368 18 -42 19 -66 4 -66 -17 0 -343 186
-441 252 -179 120 -308 244 -308 297 0 70 67 104 260 131 80 12 146 23 148 24
5 6 -143 104 -203 134 -33 16 -99 43 -147 60 -126 45 -177 74 -234 134 -76 79
-96 113 -282 483 -95 187 -194 374 -221 415 -89 136 -284 310 -526 470 -178
118 -213 131 -365 140 l-129 7 -84 51 c-132 81 -192 105 -267 106 -60 1 -65
-1 -68 -21 -5 -31 21 -75 105 -182 84 -106 105 -145 172 -310 25 -64 86 -189
134 -278 l89 -163 -36 -107 c-47 -145 -55 -179 -67 -278 -15 -133 22 -321 76
-382 l24 -28 20 20 c12 12 31 61 46 120 39 151 99 241 148 222 20 -8 79 -97
200 -307 53 -91 139 -227 192 -303 53 -76 94 -141 91 -144 -10 -11 -120 80
-227 186 -59 60 -132 146 -168 199 -34 50 -66 92 -71 92 -5 0 -19 -33 -31 -72
-38 -129 -88 -188 -159 -188 -86 0 -164 106 -211 287 -38 151 -33 411 11 570
11 40 20 82 20 93 0 11 -18 44 -41 72 -51 65 -77 117 -135 266 -58 150 -82
193 -204 357 -55 73 -109 153 -120 177 -25 55 -26 150 -2 198 40 80 119 98
265 61z m408 -472 c21 -7 53 -24 70 -39 28 -22 33 -34 37 -83 8 -100 -50 -144
-100 -75 -13 17 -49 57 -80 88 -63 62 -70 81 -36 104 27 19 57 20 109 5z"/>
</g>
</svg>
