<?xml version="1.0" encoding="UTF-8"?>
<svg version="1.1" xmlns="http://www.w3.org/2000/svg" width="225" height="225">
<path d="M0 0 C74.25 0 148.5 0 225 0 C225 74.25 225 148.5 225 225 C150.75 225 76.5 225 0 225 C0 150.75 0 76.5 0 0 Z " fill="#F39A3F" transform="translate(0,0)"/>
<path d="M0 0 C33.99 0 67.98 0 103 0 C103 0.33 103 0.66 103 1 C102.44763672 1.08975098 101.89527344 1.17950195 101.32617188 1.27197266 C70.11059591 6.46379277 42.1480523 19.29817274 23 45.5 C10.47413942 63.26783247 4.01649345 81.59025382 1 103 C0.67 103 0.34 103 0 103 C0 69.01 0 35.02 0 0 Z " fill="#FEFEFD" transform="translate(0,0)"/>
<path d="M0 0 C34.65 0 69.3 0 105 0 C105 33.99 105 67.98 105 103 C104.67 103 104.34 103 104 103 C103.83564453 101.80117187 103.83564453 101.80117187 103.66796875 100.578125 C100.25751369 76.95448504 92.17156214 55.84005665 76 38 C75.56204102 37.51289551 75.12408203 37.02579102 74.67285156 36.52392578 C54.74402115 14.63315334 28.7536473 4.84423763 0 1 C0 0.67 0 0.34 0 0 Z " fill="#FEFEFD" transform="translate(120,0)"/>
<path d="M0 0 C0.33 0 0.66 0 1 0 C1.14695313 1.16273437 1.29390625 2.32546875 1.4453125 3.5234375 C5.66147625 34.50179856 19.30020054 62.07877579 44.22265625 81.59765625 C61.53258274 94.10284478 81.68594569 102.30911469 103 104 C103 104.33 103 104.66 103 105 C69.01 105 35.02 105 0 105 C0 70.35 0 35.7 0 0 Z " fill="#FEFEFD" transform="translate(0,120)"/>
<path d="M0 0 C0.33 0 0.66 0 1 0 C1 34.32 1 68.64 1 104 C-33.32 104 -67.64 104 -103 104 C-103 103.67 -103 103.34 -103 103 C-102.16339844 102.90203125 -101.32679687 102.8040625 -100.46484375 102.703125 C-70.83211222 98.89648396 -42.99034289 85.90684579 -24.125 62.125 C-10.58365994 44.36634617 -1.08226643 22.51114177 0 0 Z " fill="#FEFEFD" transform="translate(224,121)"/>
<path d="M0 0 C4.03135021 2.5525132 6.44482181 5.77977793 7.9296875 10.234375 C8.0502904 12.82276905 8.11776503 15.38343981 8.1328125 17.97265625 C8.13851257 18.73104294 8.14421265 19.48942963 8.15008545 20.27079773 C8.15952606 21.87542327 8.16606571 23.48006812 8.16992188 25.0847168 C8.17961077 27.52752955 8.2106349 29.96949461 8.2421875 32.41210938 C8.24871977 33.97395336 8.25396936 35.53580334 8.2578125 37.09765625 C8.2701593 37.82285965 8.2825061 38.54806305 8.29522705 39.29524231 C8.27466866 44.02598221 7.42224539 47.21763657 4.9296875 51.234375 C-0.29998332 56.07182051 -4.45144036 56.53105356 -11.34375 56.44921875 C-16.34313414 56.05528447 -19.07697791 54.33509711 -22.3828125 50.671875 C-25.29951019 46.45886723 -25.26125075 43.15647098 -25.30859375 38.15625 C-25.3166655 37.35205627 -25.32473724 36.54786255 -25.33305359 35.71929932 C-25.34689548 34.0145483 -25.35761717 32.30976955 -25.36547852 30.60498047 C-25.3826546 28.00824756 -25.42653334 25.41280024 -25.47070312 22.81640625 C-25.48083355 21.15886352 -25.48934856 19.50130997 -25.49609375 17.84375 C-25.51360184 17.07166199 -25.53110992 16.29957397 -25.54914856 15.50408936 C-25.52832468 10.28055679 -24.46858169 7.40737307 -21.0703125 3.234375 C-15.64615636 -2.05070021 -7.00865686 -2.59188065 0 0 Z " fill="#FEFDFC" transform="translate(140.0703125,36.765625)"/>
<path d="M0 0 C4.14844475 1.55566678 6.4927141 3.82713226 8.875 7.4921875 C10.07731194 11.09912331 10.07515646 14.43730444 10.11328125 18.1953125 C10.121353 18.95132751 10.12942474 19.70734253 10.13774109 20.48626709 C10.15156341 22.08668742 10.16229384 23.687137 10.17016602 25.28759766 C10.18167206 26.91691787 10.20210229 28.54620079 10.23168945 30.17529297 C10.27456191 32.53639191 10.29056242 34.89637164 10.30078125 37.2578125 C10.31828934 37.97785461 10.33579742 38.69789673 10.35383606 39.4397583 C10.33029976 44.99497205 8.9058301 48.01100206 5.875 52.4921875 C1.15741077 56.9149274 -4.22395036 56.8308959 -10.4296875 56.78125 C-14.18791923 56.37819326 -16.31161804 54.95389671 -19.125 52.4921875 C-19.723125 51.9971875 -20.32125 51.5021875 -20.9375 50.9921875 C-23.94846495 47.18886336 -23.31761346 42.06174553 -23.36328125 37.4375 C-23.371353 36.65833221 -23.37942474 35.87916443 -23.38774109 35.0763855 C-23.40154411 33.43066611 -23.41228311 31.78491855 -23.42016602 30.13916016 C-23.43169798 28.46134008 -23.45216917 26.78355703 -23.48168945 25.10595703 C-23.52445045 22.67455256 -23.54054438 20.2442342 -23.55078125 17.8125 C-23.57704338 16.69658981 -23.57704338 16.69658981 -23.60383606 15.55813599 C-23.58236776 10.36724252 -22.37591007 7.49714205 -19.125 3.4921875 C-13.60037395 -1.62819762 -7.08137241 -1.69223973 0 0 Z " fill="#FEFCFA" transform="translate(170.125,119.5078125)"/>
<path d="M0 0 C4.50578919 2.27732946 6.90176472 5.81630391 8.80078125 10.34765625 C9.17742425 13.10478964 9.36456399 15.44534226 9.33203125 18.1875 C9.33585815 18.91328751 9.33968506 19.63907501 9.34362793 20.38685608 C9.34633307 21.91213377 9.33907032 23.43745897 9.32226562 24.96264648 C9.30086319 27.27629831 9.32209481 29.58683492 9.34765625 31.90039062 C9.36168315 39.53984102 9.26034573 45.84135135 4.80078125 52.34765625 C0.18520822 56.81899262 -5.36348783 56.6858421 -11.50390625 56.63671875 C-15.26213798 56.23366201 -17.38583679 54.80936546 -20.19921875 52.34765625 C-20.79734375 51.83203125 -21.39546875 51.31640625 -22.01171875 50.78515625 C-26.09125992 45.8467643 -24.54823009 36.40645444 -24.60424805 30.27050781 C-24.62581059 28.4955701 -24.65989329 26.72073822 -24.70678711 24.94628906 C-24.77402342 22.37647425 -24.80128271 19.80885328 -24.8203125 17.23828125 C-24.84814316 16.4526178 -24.87597382 15.66695435 -24.90464783 14.85748291 C-24.88476478 9.47859586 -23.52315769 6.70298366 -19.88050842 2.76165771 C-14.3551221 -1.88531329 -6.75381496 -2.00335186 0 0 Z " fill="#FEFCFB" transform="translate(95.19921875,119.65234375)"/>
<path d="M0 0 C3.96 0 7.92 0 12 0 C14.31 6.93 16.62 13.86 19 21 C19.33 14.07 19.66 7.14 20 0 C23.96 0 27.92 0 32 0 C32 18.15 32 36.3 32 55 C27.71 55 23.42 55 19 55 C17.02 48.73 15.04 42.46 13 36 C12.67 42.27 12.34 48.54 12 55 C8.04 55 4.08 55 0 55 C0 36.85 0 18.7 0 0 Z " fill="#FEFCFA" transform="translate(78,37)"/>
<path d="M0 0 C3.94304077 2.32372218 6.26980893 5.02080551 7.5625 9.4375 C7.86138773 12.84980158 7.75088684 15.99944012 7.5625 19.4375 C2.6125 19.4375 -2.3375 19.4375 -7.4375 19.4375 C-7.7675 15.8075 -8.0975 12.1775 -8.4375 8.4375 C-9.0975 8.4375 -9.7575 8.4375 -10.4375 8.4375 C-10.4375 20.6475 -10.4375 32.8575 -10.4375 45.4375 C-9.4475 45.7675 -8.4575 46.0975 -7.4375 46.4375 C-7.1075 42.1475 -6.7775 37.8575 -6.4375 33.4375 C-7.4275 33.4375 -8.4175 33.4375 -9.4375 33.4375 C-9.4375 30.4675 -9.4375 27.4975 -9.4375 24.4375 C-3.8275 24.4375 1.7825 24.4375 7.5625 24.4375 C7.5625 34.3375 7.5625 44.2375 7.5625 54.4375 C4.5925 54.4375 1.6225 54.4375 -1.4375 54.4375 C-2.0975 53.7775 -2.7575 53.1175 -3.4375 52.4375 C-4.0975 52.9325 -4.7575 53.4275 -5.4375 53.9375 C-9.1803689 55.80893445 -12.36682689 56.15585408 -16.4375 55.4375 C-20.90905251 53.15953929 -23.32570322 50.96353874 -25.4375 46.4375 C-25.86576232 43.48635085 -25.85822091 40.57181819 -25.8359375 37.59375 C-25.83880768 36.74703735 -25.84167786 35.90032471 -25.84463501 35.0279541 C-25.84667104 33.24275033 -25.8411735 31.45752402 -25.82861328 29.67236328 C-25.81255262 26.94643062 -25.82847718 24.22198053 -25.84765625 21.49609375 C-25.84567374 19.75780924 -25.84182989 18.01952565 -25.8359375 16.28125 C-25.84201019 15.46966431 -25.84808289 14.65807861 -25.8543396 13.82189941 C-25.79720536 9.20418754 -25.41779423 6.18715652 -22.4375 2.4375 C-15.73586073 -2.72834694 -7.82135171 -3.37076911 0 0 Z " fill="#FEFDFB" transform="translate(134.4375,120.5625)"/>
<path d="M0 0 C4.62 0 9.24 0 14 0 C14 14.52 14 29.04 14 44 C16.97 44 19.94 44 23 44 C23 47.63 23 51.26 23 55 C15.41 55 7.82 55 0 55 C0 36.85 0 18.7 0 0 Z " fill="#FEFEFE" transform="translate(46,120)"/>
<path d="M0 0 C1.98 0.495 1.98 0.495 4 1 C4 12.88 4 24.76 4 37 C1.525 37.495 1.525 37.495 -1 38 C-1.02464928 32.74894558 -1.04283568 27.49792455 -1.05493164 22.24682617 C-1.05997218 20.45905979 -1.06680454 18.67129755 -1.07543945 16.88354492 C-1.0875173 14.31948832 -1.09323094 11.75548603 -1.09765625 9.19140625 C-1.10281754 8.3872377 -1.10797882 7.58306915 -1.11329651 6.75453186 C-1.11349215 4.83598285 -1.06201983 2.91754632 -1 1 C-0.67 0.67 -0.34 0.34 0 0 Z " fill="#F4A658" transform="translate(130,45)"/>
<path d="M0 0 C0.99 0.33 1.98 0.66 3 1 C3 13.21 3 25.42 3 38 C1.68 38 0.36 38 -1 38 C-1.02464928 32.74894558 -1.04283568 27.49792455 -1.05493164 22.24682617 C-1.05997218 20.45905979 -1.06680454 18.67129755 -1.07543945 16.88354492 C-1.0875173 14.31948832 -1.09323094 11.75548603 -1.09765625 9.19140625 C-1.10281754 8.3872377 -1.10797882 7.58306915 -1.11329651 6.75453186 C-1.11349215 4.83598285 -1.06201983 2.91754632 -1 1 C-0.67 0.67 -0.34 0.34 0 0 Z " fill="#F29837" transform="translate(86,128)"/>
<path d="M0 0 C1.32 0 2.64 0 4 0 C4 12.21 4 24.42 4 37 C2.68 37 1.36 37 0 37 C0 24.79 0 12.58 0 0 Z " fill="#F2993D" transform="translate(161,129)"/>
</svg>
